<?xml version="1.0" encoding="utf-8"?>
<!-- Generator: Adobe Illustrator 22.0.1, SVG Export Plug-In . SVG Version: 6.00 Build 0)  -->
<svg version="1.1" id="圖層_1" xmlns="http://www.w3.org/2000/svg" xmlns:xlink="http://www.w3.org/1999/xlink" x="0px" y="0px"
	 viewBox="0 0 951.5 398.4" style="enable-background:new 0 0 951.5 398.4;" xml:space="preserve">
<style type="text/css">
	.st0{fill:#FEFEFE;}
	.st1{fill:#D6E9F7;}
	.st2{fill:#B2D6F0;}
	.st3{fill:#3A0D00;}
	.st4{fill:#A0A0C7;}
	.st5{fill:#A0A2CD;}
	.st6{fill:#929BCB;}
	.st7{fill:#969FC7;}
	.st8{fill:#8796C8;}
	.st9{fill:#B2D5EF;}
	.st10{fill:#939CCB;}
	.st11{fill:#9FA1CA;}
	.st12{fill:#8792BB;}
	.st13{fill:#D0E3F3;}
	.st14{fill:#C8D6E2;}
	.st15{fill:#939CCA;}
	.st16{fill:#8695C6;}
	.st17{fill:#8796C9;}
	.st18{fill:#D5E8F6;}
	.st19{fill:#8694C6;}
	.st20{fill:#8898CA;}
	.st21{fill:#8693C4;}
	.st22{fill:#FDFDFD;}
	.st23{fill:#FE8F8B;}
	.st24{fill:#FEC0BF;}
	.st25{fill:#FDC0BF;}
	.st26{fill:#BB4268;}
	.st27{fill:#FCC0BF;}
	.st28{fill:#F9F7F7;}
	.st29{fill:#FBF0F0;}
	.st30{fill:#F8BBB9;}
	.st31{fill:#F7BEBD;}
	.st32{fill:#FAF8F7;}
	.st33{fill:#9097C5;}
	.st34{fill:#9490B4;}
	.st35{fill:#8C829F;}
	.st36{fill:#EAB1AF;}
	.st37{fill:#857B97;}
	.st38{fill:#3B0E01;}
	.st39{fill:#3C1003;}
	.st40{fill:#A1A3CD;}
	.st41{fill:#471E10;}
	.st42{fill:#9D9CC0;}
	.st43{fill:#5B352A;}
	.st44{fill:#E9E4E2;}
	.st45{fill:#E7C588;}
	.st46{fill:#D89348;}
	.st47{fill:#966800;}
	.st48{fill:#A0A2CC;}
	.st49{fill:#E6C487;}
	.st50{fill:#D79348;}
	.st51{fill:#6E3E00;}
	.st52{fill:#D59147;}
	.st53{fill:#FBF295;}
	.st54{fill:#E5C286;}
	.st55{fill:#F8EF94;}
	.st56{fill:#E4C185;}
	.st57{fill:#6E3D00;}
	.st58{fill:#FAFAFB;}
	.st59{fill:#F5EA91;}
	.st60{fill:#F6EC90;}
	.st61{fill:#D39249;}
	.st62{fill:#F0E38D;}
	.st63{fill:#F4F3F5;}
	.st64{fill:#FAF196;}
	.st65{fill:#A07615;}
	.st66{fill:#ECDE8B;}
	.st67{fill:#F6E693;}
	.st68{fill:#E5D67B;}
	.st69{fill:#D9C774;}
	.st70{fill:#785950;}
	.st71{fill:#B9A154;}
	.st72{fill:#E3D47E;}
	.st73{fill:#985E2C;}
	.st74{fill:#B69B4D;}
	.st75{fill:#D8C671;}
	.st76{fill:#3B0F02;}
	.st77{fill:#3D1103;}
	.st78{fill:#3D1104;}
	.st79{fill:#3E1305;}
	.st80{fill:#44190B;}
	.st81{fill:#A6A7CC;}
	.st82{fill:#5B341A;}
	.st83{fill:#9B8576;}
	.st84{fill:#FCFBFB;}
	.st85{fill:#F6F5F4;}
	.st86{fill:#F8F7F7;}
	.st87{fill:#998374;}
	.st88{fill:#441A0E;}
	.st89{fill:#F6F4F4;}
	.st90{fill:#481E0B;}
	.st91{fill:#8B7163;}
	.st92{fill:#957D6F;}
	.st93{fill:#8593C3;}
	.st94{fill:#836859;}
	.st95{fill:#8C7364;}
	.st96{fill:#9A837C;}
	.st97{fill:#583226;}
	.st98{fill:#DCD5D3;}
	.st99{fill:#7F6253;}
	.st100{fill:#C8BCB6;}
	.st101{fill:#4A231B;}
	.st102{fill:#B4A39E;}
	.st103{fill:#593327;}
	.st104{fill:#42180A;}
	.st105{fill:#D1C7C4;}
	.st106{fill:#8F7667;}
	.st107{fill:#542F23;}
	.st108{fill:#816557;}
	.st109{fill:#7C6053;}
	.st110{fill:#4D2519;}
	.st111{fill:#F2F3F8;}
	.st112{fill:#3A0E01;}
	.st113{fill:#3E1204;}
	.st114{fill:#3B0E02;}
	.st115{fill:#481F0D;}
	.st116{fill:#F9F9F8;}
	.st117{fill:#B2A6A0;}
	.st118{fill:#491F13;}
	.st119{fill:#BAAEAA;}
	.st120{fill:#704F46;}
	.st121{fill:#3D1004;}
	.st122{fill:#FDEBEA;}
	.st123{fill:#FEA19E;}
	.st124{fill:#583227;}
	.st125{fill:#643D32;}
	.st126{fill:#FAC5C4;}
	.st127{fill:#FEF8F8;}
	.st128{fill:#FBE6E5;}
	.st129{fill:#C5B046;}
	.st130{fill:#3C0F01;}
	.st131{fill:#D9954A;}
	.st132{fill:#D89449;}
	.st133{fill:#F8EB93;}
	.st134{fill:#D5B27A;}
	.st135{fill:#F3E757;}
	.st136{fill:#D4C148;}
	.st137{fill:#B59E3A;}
	.st138{fill:#CFBC46;}
	.st139{fill:#3C1002;}
	.st140{fill:#451A0E;}
	.st141{fill:#E0C3A6;}
	.st142{fill:#4C2317;}
	.st143{fill:#E9E5E3;}
	.st144{fill:#D3CAC7;}
	.st145{fill:#E0D04E;}
	.st146{fill:#FEF35C;}
	.st147{fill:#FA8D89;}
	.st148{fill:#FC8E8A;}
	.st149{fill:#F68B87;}
	.st150{fill:#F7F5F5;}
	.st151{fill:#FBFAFA;}
	.st152{fill:#EBDD54;}
	.st153{fill:#AC9336;}
	.st154{fill:#F3E758;}
	.st155{fill:#E5D650;}
	.st156{fill:#E6A9B4;}
	.st157{fill:#F79793;}
	.st158{fill:#EAA5A1;}
	.st159{fill:#491B0F;}
	.st160{fill:#411503;}
	.st161{fill:#DCCC4C;}
	.st162{fill:#704D1A;}
	.st163{fill:#CCB944;}
	.st164{fill:#401403;}
	.st165{fill:#C4AF41;}
	.st166{fill:#E3D44F;}
	.st167{fill:#CFBB46;}
	.st168{fill:#806021;}
	.st169{fill:#A18630;}
</style>
<g>
	<g>
		<path class="st0" d="M1,330.5c0-78.1,0-156.2,0-234.2c4.1-2.7,8.8-1.2,13.2-1.5c14.9-0.2,29.8-0.1,44.6-0.1
			c6.4,0.1,12.8-0.2,19.3,0c14.9-0.1,29.8-0.1,44.7-0.1c6.4,0.1,12.7-0.2,19.1,0c5.8,0,11.6-0.1,17.4,0c2.3,0.1,4.7-0.2,6.2,2.1
			c0.2,5.2-2.7,9.4-4.8,13.8c-0.9,1.9-3.1,2.4-5.1,2.7c-7.4,0.8-14.8,2-22.1,3.8c-3.2,0.8-5.8-0.1-8.6-1.5
			c-8.3-4.2-16.6-8.4-26.4-8.1c-9.6,0.2-15.2,4.2-18,13.3c-1.9,6.1-1.4,12.5-0.9,18.7c0.4,5.4,1.2,10.9,2.6,16.1
			c1,3.7,0.4,6.6-1.8,9.7c-7.6,10.6-10.7,22.9-10.8,35.5c-0.2,17.7,9,30.3,24.3,38.6c3.8,2.1,7.8,3.8,11.6,5.8
			c3.3,1.8,3.3,3.3,0.2,5.2c-3.8,2.3-8,2-12.1,1.6c-8.4-0.9-12.1,0.9-13.7,7c-1.6,6.2,1.7,12.1,8.3,15c1.5,0.7,3.1,1.1,4.8,1.3
			c4.9,1.3,9.4,3.3,13.4,6.4c-0.4,7.6-3.5,14.7-5,22.1c-0.2,1.1-1.2,1.9-2.1,2.6c-7,5.3-8.3,9.6-5.7,18.3c0.6,2,2.5,4.2-0.1,6.3
			c-5.2,1.4-10.4,0.6-15.6,0.7c-14.8,0.2-29.7,0.1-44.5,0.1c-6.7-0.1-13.4,0.1-20.1,0C9.1,331.5,4.8,333.2,1,330.5z"/>
		<path class="st0" d="M951,96.3c0,78.1,0,156.2,0,234.2c-2.2,1.9-5,1.5-7.6,1.5c-4.8,0-9.6,0.1-14.3,0c-6.4-0.1-12.7,0.2-19.1,0
			c-5.2,0-10.3,0.1-15.5,0c-7-0.1-7.8-0.9-7.9-7.7c0-0.8,0-1.7,0-2.5c0-4.8,0.1-9.6,0.1-14.4c-0.1-3.4,1.1-5.7,4.7-6.5
			c3.3-0.7,5.3-2.7,4.8-6.4c-0.4-2.7,1.1-4.7,2.5-6.8c10.7-15.8,9.9-22.7-1.9-38.4c-2.3-3-4.9-5.9-7.1-9c-1.3-1.9-1.9-4,0.2-5.7
			c10-8.3,11.4-19.7,11.7-31.5c0.4-17.6-3.4-34.4-10.1-50.7c-3.3-8-3.2-8.1,3.1-13.8c4-3.6,7.4-7.5,9.1-12.8
			c2-6.1,0.5-10.8-5.2-13.9c-3.6-1.9-4.8-4.2-3.3-8c1.1-2.8-0.6-6.4,2.4-8.7c4.2-1.3,8.5-0.6,12.8-0.7c11.2-0.3,22.3-0.1,33.5-0.1
			C946.3,94.7,948.9,94.5,951,96.3z"/>
		<path class="st1" d="M685,1c15,0,30,0,45,0c0.6,2.5-1.4,3.5-2.7,4.8c-29.6,29.4-59.2,58.8-88.8,88.1c-1.5,1.5-3,3.1-5.3,3.5
			c-13.8,0.5-27.5,0.6-41.3,0c-2.2-0.5-2.7-1.7-1.4-3.6c1.1-1.5,2.4-2.7,3.7-4c28.3-28.1,56.6-56.2,84.9-84.3
			C681,3.8,682.8,2.1,685,1z"/>
		<path class="st1" d="M621,1c15,0,30,0,45,0c0.6,2.5-1.4,3.5-2.7,4.8c-29.6,29.4-59.2,58.8-88.8,88.1c-1.5,1.5-3,3.1-5.3,3.5
			c-13.8,0.5-27.5,0.6-41.3,0c-2.2-0.5-2.7-1.7-1.4-3.6c1.1-1.5,2.4-2.7,3.7-4c28.3-28.1,56.6-56.2,84.9-84.3
			C617,3.8,618.8,2.1,621,1z"/>
		<path class="st1" d="M59.1,96.2c-15,0-30.1,0-45.1,0c-0.5-2.4,1.5-3.5,2.8-4.8c29.1-29,58.3-57.9,87.4-86.9c1.4-1.4,3-2.5,4.8-3.5
			c15,0,30,0,45,0c0.6,2.2-1.2,3.3-2.4,4.5C122.2,34.7,92.8,63.8,63.5,93C62.1,94.3,60.6,95.3,59.1,96.2z"/>
		<path class="st1" d="M557,1c15,0,30,0,45,0c0.6,2.5-1.4,3.5-2.7,4.8c-29.6,29.4-59.2,58.8-88.8,88.1c-1.5,1.5-3,3.1-5.3,3.5
			c-13.8,0.5-27.5,0.6-41.3,0c-2.2-0.5-2.7-1.7-1.4-3.6c1.1-1.5,2.4-2.7,3.7-4c28.3-28.1,56.6-56.2,84.9-84.3
			C553,3.8,554.8,2.1,557,1z"/>
		<path class="st1" d="M493,1c15,0,30,0,45,0c0.6,2.5-1.4,3.5-2.7,4.8c-29.6,29.4-59.2,58.8-88.8,88.1c-1.5,1.5-3,3.1-5.3,3.5
			c-13.8,0.5-27.5,0.6-41.3,0c-2.2-0.5-2.7-1.7-1.4-3.6c1.1-1.5,2.4-2.7,3.7-4c28.3-28.1,56.6-56.2,84.9-84.3
			C489,3.8,490.8,2.1,493,1z"/>
		<path class="st1" d="M429,1c15,0,30,0,45,0c0.6,2.5-1.4,3.5-2.7,4.8c-29.6,29.4-59.2,58.8-88.8,88.1c-1.5,1.5-3,3.1-5.3,3.5
			c-13.8,0.5-27.5,0.6-41.3,0c-2.2-0.5-2.7-1.7-1.4-3.6c1.1-1.5,2.4-2.7,3.7-4c28.3-28.1,56.6-56.2,84.9-84.3
			C425,3.8,426.8,2.1,429,1z"/>
		<path class="st1" d="M749,1c15,0,30,0,45,0c0.6,2.5-1.4,3.5-2.7,4.8c-29.6,29.4-59.2,58.8-88.8,88.1c-1.5,1.5-3,3.1-5.3,3.5
			c-13.8,0.5-27.5,0.6-41.3,0c-2.2-0.5-2.7-1.7-1.4-3.6c1.1-1.5,2.4-2.7,3.7-4c28.3-28.1,56.6-56.2,84.9-84.3
			C745,3.8,746.8,2.1,749,1z"/>
		<path class="st1" d="M365,1c15,0,30,0,45,0c0.6,2.5-1.4,3.5-2.7,4.8c-29.6,29.4-59.2,58.8-88.8,88.1c-1.5,1.5-3,3.1-5.3,3.5
			c-13.8,0.5-27.5,0.6-41.3,0c-2.2-0.5-2.7-1.7-1.4-3.6c1.1-1.5,2.4-2.7,3.7-4c28.3-28.1,56.6-56.2,84.9-84.3
			C361,3.8,362.8,2.1,365,1z"/>
		<path class="st1" d="M123.1,96.2c-15,0-30.1,0-45.1,0c-0.5-2.4,1.5-3.5,2.8-4.8c29.1-29,58.3-57.9,87.4-86.8
			c1.4-1.4,3-2.5,4.8-3.5c15,0,30,0,45,0c0.6,2.2-1.2,3.3-2.4,4.5c-29.4,29.2-58.8,58.4-88.1,87.6C126.1,94.3,124.6,95.3,123.1,96.2
			z"/>
		<path class="st1" d="M301,1c15,0,30,0,45,0c0.6,2.2-1.2,3.3-2.4,4.5c-29.9,29.7-59.8,59.4-89.7,89.1c-1.3,1.3-2.7,2.5-4.6,2.9
			c-12.4,0.7-24.8,0.1-37.2,0.4c-2.1,0.3-3.8-0.4-5.1-1.9c-0.9-2.4,1-3.7,2.3-5c29.1-28.9,58.2-57.8,87.3-86.7
			C297.9,2.9,299.5,2,301,1z"/>
		<path class="st1" d="M165,98.2c-0.6-2.7-2.7-1.8-4.4-1.8c-6.2-0.1-12.4-0.1-18.7-0.1c-0.5-2.4,1.5-3.5,2.8-4.8
			c29.1-29,58.3-57.9,87.4-86.8c1.4-1.4,3-2.5,4.8-3.5c15,0,30,0,45,0c0.6,2.5-1.4,3.5-2.8,4.8c-27.1,27-54.3,54-81.5,80.9
			c-1.8,1.8-3.5,3.6-6.3,3.6c-2.8-0.2-5.6-0.7-8.4-0.8c-5.4-0.2-9.7,1.8-13.4,5.4C168.3,96.3,167.5,98.5,165,98.2z"/>
		<path class="st1" d="M877,1c15,0,30,0,45,0c0.6,1.8-0.7,2.8-1.7,3.8c-16,16-32.1,32-48.2,47.9c-0.7,0.7-1.5,1.3-2.5,1.6
			c-3.8-0.2-7.2-2-10.9-2.6c-2.9-0.9-5.3-2.6-8.2-3.4c-6.1-1.7-10.3,1.6-10,7.8c0.2,3.8,1.2,7.5,1.7,11.2c0.8,6.3-0.2,11.5-6.9,14.8
			c-5.1,2.5-9.5,6.6-14.7,9.2c-2.7,1.3-5.2,3-8.3,2.9c-2.5-0.8-2.3-3-2.4-4.9c-0.2-2-0.3-4-1.5-5.7c-1.8-2.5-3.8-4.3-7-2.2
			c-1.1,0.7-2.4,1.2-3.8,0.7c-0.4-0.2-0.7-0.6-0.8-1.1c0.3-2.1,2.1-3.3,3.5-4.7C824,52.4,848,28.6,871.9,4.9
			C873.4,3.3,875.1,2,877,1z"/>
		<path class="st1" d="M394,398c-14.7,0-29.3,0-44,0c-0.6-2.7,1.7-3.7,3.1-5.2c7.4-7.8,15.9-14.7,23.3-22.4
			c12-12.4,24.1-24.7,36.3-36.8c1.8-1.7,3.4-3.7,6-4.2c13.8-0.5,27.6-0.6,41.3,0c2.2,0.6,2.6,1.8,1.3,3.6c-1,1.4-2.2,2.5-3.4,3.6
			c-15.2,15-30.1,30.3-45.6,45C406.6,387.3,400.9,393.4,394,398z"/>
		<path class="st1" d="M330,398c-14.7,0-29.3,0-44,0c-0.6-2.7,1.7-3.7,3.1-5.2c7.4-7.8,15.9-14.7,23.3-22.4
			c12-12.4,24.1-24.7,36.3-36.8c1.8-1.7,3.4-3.7,6-4.2c13.8-0.5,27.6-0.6,41.3,0c2.2,0.6,2.6,1.8,1.3,3.6c-1,1.4-2.2,2.5-3.4,3.6
			c-15.2,15-30.1,30.3-45.6,45C342.6,387.3,336.9,393.4,330,398z"/>
		<path class="st1" d="M522,398c-14.7,0-29.3,0-44,0c-0.6-2.7,1.7-3.7,3.1-5.2c7.4-7.8,15.9-14.7,23.3-22.4
			c12-12.4,24.1-24.7,36.3-36.8c1.8-1.7,3.4-3.7,6-4.2c13.8-0.5,27.6-0.6,41.3,0c2.2,0.6,2.6,1.8,1.3,3.6c-0.9,1.2-2,2.2-3,3.3
			c-15.4,15.3-30.6,30.8-46.3,45.7C534.3,387.5,528.8,393.5,522,398z"/>
		<path class="st1" d="M458,398c-14.7,0-29.3,0-44,0c-0.6-2.7,1.7-3.7,3.1-5.2c7.4-7.8,15.9-14.7,23.3-22.4
			c12-12.4,24.1-24.7,36.3-36.8c1.8-1.7,3.4-3.7,6-4.2c13.8-0.5,27.6-0.6,41.3,0c2.2,0.6,2.6,1.8,1.3,3.6c-1,1.4-2.2,2.5-3.4,3.6
			c-15.2,15-30.1,30.3-45.6,45C470.6,387.3,464.9,393.4,458,398z"/>
		<path class="st1" d="M266,398c-14.7,0-29.3,0-44,0c-0.6-2.7,1.7-3.7,3.1-5.2c7.4-7.8,15.9-14.7,23.3-22.4
			c12-12.4,24.1-24.7,36.3-36.8c1.8-1.7,3.4-3.7,6-4.2c13.8-0.5,27.6-0.6,41.3,0c2.2,0.6,2.6,1.8,1.3,3.6c-1,1.4-2.2,2.5-3.4,3.6
			c-15.2,15-30.1,30.3-45.6,45C278.6,387.3,272.9,393.4,266,398z"/>
		<path class="st1" d="M202,398c-14.7,0-29.3,0-44,0c-0.6-2.5,1.4-3.5,2.8-4.8c6.5-6.3,12.6-13.1,19.8-18.8
			c6.7-5.4,11.5-12.7,17.9-18.6c4.5-2.2,7.7-5.6,10.1-10c4.3-4.4,8.6-8.6,12.9-12.9c1.5-1.5,3-3.1,5.3-3.5c13.8-0.5,27.6-0.6,41.4,0
			c2.2,0.6,2.6,1.8,1.3,3.6c-1,1.4-2.2,2.5-3.4,3.6c-15.2,15-30.1,30.3-45.6,45C214.6,387.3,208.9,393.4,202,398z"/>
		<path class="st1" d="M1,88.3c0-14.6,0-29.1,0-43.7c1-1.7,2.1-3.3,3.6-4.7C16.5,28.2,28.4,16.4,40.2,4.5C41.7,3.1,43.3,2,45,1
			c15,0,30,0,45,0c0.6,2.2-1.2,3.3-2.4,4.5C67.4,25.6,47.3,45.9,26.8,65.7C19.8,72.3,12.9,79,5.9,85.6C4.5,86.9,3.5,88.9,1,88.3z"/>
		<path class="st1" d="M586,398c-14.7,0-29.3,0-44,0c-0.6-2.7,1.7-3.8,3.1-5.2c7.5-7.7,15.7-14.7,23.2-22.3
			c12.1-12.4,24.2-24.8,36.6-37c1.6-1.6,3.1-3.5,5.5-4.1c7.3-0.9,14.6,0.1,21.9-0.5c5.1,1.3,10.4,2.3,12.9,7.9
			c0.5,3.5-1.2,5.9-3.5,8.3c-17.1,16.8-33.9,33.9-51.5,50.2C588.8,396.3,587.4,397.1,586,398z"/>
		<path class="st1" d="M928.9,330.5c7.4,0,14.7,0,22.1,0c0,7.9,0,15.9,0,23.8c-1.1,1.9-2.4,3.5-3.9,5.1
			c-12.2,12.1-24.3,24.3-37.1,35.8c-1.3,1.1-2.7,1.9-4,2.8c-14.7,0-29.3,0-44,0c-0.5-2.6,1.7-3.7,3.1-5.2
			c7.5-7.7,15.8-14.7,23.2-22.4c11.6-12,23.4-23.9,35.2-35.7C925.1,333.1,926.8,331.6,928.9,330.5z"/>
		<path class="st1" d="M941,1c3.3,0,8-1.3,9.6,0.4c1.7,1.7,0.4,6.3,0.4,9.6c0,8.6,0,17.2,0,25.8c-1.1,1.9-2.3,3.5-3.9,5.1
			c-15.3,15.1-30.5,30.3-45.8,45.3c-1.6,1.5-2.8,3.8-5.7,3.4c-0.5-0.4-1.1-0.8-1.3-1.4c-2.4-9.9-7.6-18.3-13.8-26.2
			c-0.8-2.5,1-4,2.5-5.5c17.8-17.8,35.7-35.4,53.5-53.2C937.9,2.9,939.5,2,941,1z"/>
		<path class="st1" d="M778,398c-14.7,0-29.3,0-44,0c-0.6-2.7,1.7-3.8,3.1-5.2c7.6-7.9,15.6-15.3,23.8-22.7c1.1-1,2.3-2,3.1-3.2
			c4.5-6.7,10.3-11.1,18.8-10.5c6.8-2.1,11.9-6.1,15.8-12c4.6-6.9,11.2-11.5,19.1-14.2c5.1-1.6,10.3-1,15.5-0.9
			c3.5,0.5,5.8,2.5,7.3,5.6c0.6,2.5-0.9,4.1-2.5,5.6c-18.7,18.5-37.1,37.3-56.5,55.1C780.6,396.5,779.2,397.1,778,398z"/>
		<path class="st1" d="M74,398c-14.7,0-29.3,0-44,0c-0.5-2.6,1.7-3.7,3.1-5.2c7.5-7.8,15.9-14.6,23.3-22.4
			c11.3-11.7,22.7-23.3,34.2-34.7c1.6-1.6,3-3.7,5.6-3.8c1.7,0.3,2.9,1.5,4,2.6c3.3,3.1,7.1,5.1,11.9,4.8c4.7,1.3,8.2,5.4,13.5,5.2
			c1.7,0.6,1.8,1.7,0.9,3.1c-0.9,1.4-2.1,2.5-3.3,3.7c-14.8,14.7-29.4,29.5-44.8,43.6C77,396.1,75.5,397,74,398z"/>
		<path class="st1" d="M813,1c15,0,30,0,45,0c0.5,2.9-1.9,4-3.5,5.5c-22.1,22-44.2,44-66.4,65.9c-1.5,1.5-3.2,2.9-4.2,4.9
			c-0.7,0.5-1.4,0.5-2.1,0c-2.3-3.5-1-7.3-1.3-11c-0.2-3.3,0.1-6.6-0.1-9.8c-0.3-5.1-2.4-6.7-7.4-5.9c-1.6,0.3-3.2,1-4.9,0.4
			c-1.3-0.9-1.3-2.2-1.3-3.5c0.3-2.5,2.1-4,3.7-5.6c12.5-12.5,25.1-24.9,37.6-37.3C809.7,3.1,811.3,2,813,1z"/>
		<path class="st1" d="M138,398c-14.7,0-29.3,0-44,0c-0.6-2.2,1.2-3.3,2.4-4.5c6.6-6.3,12.7-13.1,19.8-18.9
			c4.2-3.5,7.7-7.7,11.5-11.7c10.8-11.4,21.8-22.7,33.7-33.1c3.9,0.3,4.2-3.3,5.9-5.4c2.9,1.2,1.8,3.9,2.1,6c0.1,0.8,0,1.6-0.1,2.5
			c-1.1,13.3-0.3,14.4,13.1,17.7c0.7,0.3,1.3,0.8,1.7,1.4c0.7,2.2-0.9,3.4-2.2,4.6c-13.2,13.3-26.5,26.4-40.3,39
			C140.6,396.5,139.2,397.1,138,398z"/>
		<path class="st1" d="M32.9,330.5c15,0,30.1,0,45.1,0c0.5,2.4-1.5,3.5-2.8,4.8c-15.8,15.8-31.5,31.8-47.7,47.2
			c-5.6,5.3-10.8,11.2-17.5,15.4c-3,0-7.2,1.2-8.7-0.3c-1.5-1.5-0.3-5.6-0.3-8.6c0-8.9,0-17.9,0-26.8c1.3-2.7,3.6-4.7,5.7-6.8
			c6.9-6.9,13.9-13.8,20.8-20.7C29.1,333.2,30.8,331.6,32.9,330.5z"/>
		<path class="st1" d="M842,398c-14.7,0-29.3,0-44,0c-0.6-2.4,1.4-3.5,2.7-4.8c7-7,14.1-13.9,21.5-20.5c7.9-7,14.2-15.6,22-22.7
			c2.1-1.9,4.1-4,7.3-3.5c3.8,1.4,7.9,1.6,11.7,3.1c6.9,4,14.3,5.3,22.1,3.1c1.8,0.3,2.2,1.2,1.3,2.8c-0.7,1.3-1.8,2.3-2.9,3.4
			c-12.4,12.3-24.7,24.8-37.7,36.5C844.8,396.3,843.4,397.1,842,398z"/>
		<path class="st2" d="M1,88.3c0.4-0.3,0.9-0.5,1.3-0.8c29.3-27.8,57.9-56.5,86.6-85C89.3,2.1,89.6,1.5,90,1c6.3,0,12.7,0,19,0
			c-1.2,1.4-2.3,2.8-3.6,4.1C76.3,34,47.1,62.9,18,91.9c-1.4,1.4-2.7,2.9-4,4.4c-4.3,0-8.6,0-13,0C1,93.6,1,91,1,88.3z"/>
		<path class="st2" d="M443,96.2c1.2-1.4,2.3-2.8,3.6-4c29.1-28.9,58.3-57.8,87.4-86.8c1.4-1.4,2.7-2.9,4-4.4c6.3,0,12.7,0,19,0
			c-1.2,1.4-2.3,2.8-3.6,4.1c-29.2,29.1-58.5,58.1-87.8,87.2c-1.3,1.3-2.5,2.7-3.7,4C455.7,98.8,449.3,98.8,443,96.2z"/>
		<path class="st2" d="M507,96.2c1.2-1.4,2.3-2.8,3.6-4c29.1-28.9,58.3-57.8,87.4-86.8c1.4-1.4,2.7-2.9,4-4.4c6.3,0,12.7,0,19,0
			c-1.2,1.4-2.3,2.8-3.6,4.1c-29.2,29.1-58.5,58.1-87.8,87.2c-1.3,1.3-2.5,2.7-3.7,4C519.7,98.8,513.3,98.8,507,96.2z"/>
		<path class="st2" d="M571,96.2c1.2-1.4,2.3-2.8,3.6-4c29.1-28.9,58.3-57.8,87.4-86.8c1.4-1.4,2.7-2.9,4-4.4c6.3,0,12.7,0,19,0
			c-1.2,1.4-2.3,2.8-3.6,4.1c-29.2,29.1-58.5,58.1-87.8,87.2c-1.3,1.3-2.5,2.7-3.7,4C583.7,98.8,577.3,98.8,571,96.2z"/>
		<path class="st2" d="M749,1c-1.2,1.4-2.3,2.8-3.6,4.1c-29.2,29.1-58.5,58.1-87.8,87.2c-1.3,1.3-2.5,2.7-3.7,4
			c-6.3,2.6-12.6,2.6-18.9,0c1.2-1.4,2.3-2.8,3.6-4c29.1-28.9,58.3-57.8,87.4-86.8c1.4-1.4,2.7-2.9,4-4.4C736.3,1,742.7,1,749,1z"/>
		<path class="st2" d="M379,96.2c1.2-1.4,2.3-2.8,3.6-4c29.1-28.9,58.3-57.8,87.4-86.8c1.4-1.4,2.7-2.9,4-4.4c6.3,0,12.7,0,19,0
			c-1.2,1.4-2.3,2.8-3.6,4.1c-29.2,29.1-58.5,58.1-87.8,87.2c-1.3,1.3-2.5,2.7-3.7,4C391.7,98.8,385.3,98.8,379,96.2z"/>
		<path class="st2" d="M315,96.2c1.2-1.4,2.3-2.8,3.6-4c29.1-28.9,58.3-57.8,87.4-86.8c1.4-1.4,2.7-2.9,4-4.4c6.3,0,12.7,0,19,0
			c-1.2,1.4-2.3,2.8-3.6,4.1c-29.2,29.1-58.5,58.1-87.8,87.2c-1.3,1.3-2.5,2.7-3.7,4C327.7,98.8,321.3,98.8,315,96.2z"/>
		<path class="st2" d="M251,96.2c1.2-1.4,2.3-2.8,3.6-4c29.1-28.9,58.3-57.8,87.4-86.8c1.4-1.4,2.7-2.9,4-4.4c6.3,0,12.7,0,19,0
			c-1.2,1.4-2.3,2.8-3.6,4.1c-29.2,29.1-58.5,58.1-87.8,87.2c-1.3,1.3-2.5,2.7-3.7,4C263.7,98.8,257.3,98.8,251,96.2z"/>
		<path class="st2" d="M237,1c-1.2,1.4-2.3,2.8-3.6,4.1c-29.2,29.1-58.5,58.1-87.8,87.2c-1.3,1.3-2.4,2.7-3.7,4
			c-6.3,0-12.6,0-18.9,0c1.2-1.4,2.3-2.8,3.6-4.1c29.1-28.9,58.3-57.8,87.4-86.8c1.4-1.4,2.7-2.9,4-4.4C224.3,1,230.7,1,237,1z"/>
		<path class="st2" d="M173,1c-1.2,1.4-2.3,2.8-3.6,4.1c-29.2,29.1-58.5,58.1-87.8,87.2c-1.3,1.3-2.4,2.7-3.7,4
			c-6.3,0-12.6,0-18.9,0c1.2-1.4,2.3-2.8,3.6-4.1C91.8,63.2,120.9,34.3,150,5.4c1.4-1.4,2.7-2.9,4-4.4C160.3,1,166.7,1,173,1z"/>
		<path class="st2" d="M191.7,89.5c1.8-0.2,3-1.3,4.2-2.5c28.2-28,56.4-56,84.7-84.1c0.6-0.6,1-1.3,1.5-1.9c6.3,0,12.7,0,19,0
			c-1.2,1.4-2.3,2.8-3.6,4.1c-28.9,28.7-57.8,57.4-86.7,86.1c-1.3,1.3-2.4,2.7-3.6,4c-0.3,0.4-0.7,0.6-1.2,0.7c-2.5,0-4.7-1.3-7-1.6
			C196.2,93,193,92.7,191.7,89.5z"/>
		<path class="st2" d="M784,76.5c-0.7-2.3,1.5-3,2.6-4c22.6-22.5,45.2-44.9,67.8-67.4c1.3-1.3,2.4-2.7,3.6-4.1c6.3,0,12.7,0,19,0
			c-0.7,0.9-1.4,1.9-2.2,2.7c-25,24.9-50.1,49.7-75.1,74.6c-0.8,0.8-1.8,1.5-2.7,2.2c-1-0.2-1.7-1-2.2-1.8c-2.3-3.2-4.8-4.8-8.5-2
			C785.6,77.2,784.7,77.1,784,76.5z"/>
		<path class="st2" d="M161,330.6c-4.4,4.7-8.5,9.7-13.2,14c-8.5,7.7-16.1,16.1-24,24.3c-8.5,8.8-17.6,17-26.4,25.5
			c-1.2,1.1-2.2,2.5-3.3,3.7c-6.7,0-13.3,0-20,0c4.4-5,9.3-9.3,14.1-13.8c12.9-12.1,25.2-24.8,37.8-37.3c0.5-0.5,0.8-1.1,0-1.6
			c3.3-3.9,6.7-7.8,10.5-11.2c2.8-1,4.1-4.3,7.2-4.7C149.5,329.4,155.4,327.6,161,330.6z"/>
		<path class="st2" d="M842,398c5.8-7.5,13.7-12.9,20.3-19.6c7.1-7.2,14.4-14.2,21.4-21.4c1-1,3.3-1.4,2.3-3.7
			c0.1-2.4,2-3.2,3.6-4.4c5.7-3.8,9.7-9.3,14.7-13.8c1.8-1.7,3.5-3.5,5.8-4.5c6.3,0,12.6,0,18.9,0c-3.5,3.7-7.1,7.4-10.6,11.1
			c-10.1,10.4-20,21.1-30.5,31.1c-7.5,7.2-15.1,14.3-22.5,21.6c-1.2,1.2-2.2,2.5-3.3,3.7C855.3,398,848.7,398,842,398z"/>
		<path class="st2" d="M481,330.6c-3.5,3.7-7.1,7.4-10.6,11c-10.1,10.4-20,21.1-30.5,31.1c-7.5,7.2-15.1,14.3-22.5,21.6
			c-1.2,1.2-2.2,2.5-3.3,3.7c-6.7,0-13.3,0-20,0c4.7-5.6,10.4-10.1,15.6-15.2c17.2-16.6,34-33.5,50.9-50.4c0.6-0.6,1-1.3,1.6-1.9
			C468.3,328,474.7,328,481,330.6z"/>
		<path class="st2" d="M458,398c4.7-5.6,10.4-10.1,15.6-15.2c17.2-16.6,34-33.5,50.9-50.4c0.6-0.6,1-1.3,1.6-1.9
			c6.3-2.6,12.6-2.6,18.9,0c-3.5,3.7-7.1,7.4-10.6,11c-10.1,10.4-20,21.1-30.5,31.1c-7.5,7.2-15.1,14.3-22.5,21.6
			c-1.2,1.2-2.2,2.5-3.3,3.7C471.3,398,464.7,398,458,398z"/>
		<path class="st2" d="M330,398c4.7-5.6,10.4-10.1,15.6-15.2c17.2-16.6,34-33.5,50.9-50.4c0.6-0.6,1-1.3,1.6-1.9
			c6.3-2.6,12.6-2.6,18.9,0c-3.5,3.7-7.1,7.4-10.6,11c-10.1,10.4-20,21.1-30.5,31.1c-7.5,7.2-15.1,14.3-22.5,21.6
			c-1.2,1.2-2.2,2.5-3.3,3.7C343.3,398,336.7,398,330,398z"/>
		<path class="st2" d="M266,398c4.7-5.6,10.4-10.1,15.6-15.2c17.2-16.6,34-33.5,50.9-50.4c0.6-0.6,1-1.3,1.6-1.9
			c6.3-2.6,12.6-2.6,18.9,0c-3.5,3.7-7.1,7.4-10.6,11c-10.1,10.4-20,21.1-30.5,31.1c-7.5,7.2-15.1,14.3-22.5,21.6
			c-1.2,1.2-2.2,2.5-3.3,3.7C279.3,398,272.7,398,266,398z"/>
		<path class="st2" d="M202,398c4.7-5.6,10.4-10.1,15.6-15.2c17.2-16.6,34-33.5,50.9-50.4c0.6-0.6,1-1.3,1.6-1.9
			c6.3-2.6,12.6-2.6,18.9,0c-3.5,3.7-7.1,7.4-10.6,11c-10.1,10.4-20,21.1-30.5,31.1c-7.5,7.2-15.1,14.3-22.5,21.6
			c-1.2,1.2-2.2,2.5-3.3,3.7C215.3,398,208.7,398,202,398z"/>
		<path class="st2" d="M609,330.6c-3.5,3.7-7.1,7.4-10.6,11c-10.1,10.4-20,21.1-30.5,31.1c-7.5,7.2-15.1,14.3-22.5,21.6
			c-1.2,1.2-2.2,2.5-3.3,3.7c-6.7,0-13.3,0-20,0c4.7-5.6,10.4-10.1,15.6-15.2c17.2-16.6,34-33.5,50.9-50.4c0.6-0.6,1-1.3,1.6-1.9
			C596.3,328,602.7,328,609,330.6z"/>
		<path class="st2" d="M10,398c4.6-5.4,10.1-9.9,15.2-14.8c17.5-16.9,34.7-34.2,51.9-51.4c0.3-0.3,0.6-0.8,0.9-1.2
			c5.4,0,10.9-0.1,16.3-0.1c1.3,0.1,2.3,0.5,1.6,2.1c-11.3,10.8-22.5,21.6-33,33.1c-7.8,8.5-16.7,16.1-25,24.2
			c-2.7,2.6-5.3,5.5-7.9,8.3C23.3,398,16.7,398,10,398z"/>
		<path class="st2" d="M813,1c-12.4,12.5-24.9,25-37.3,37.6c-2.7,2.7-5.7,5-7.8,8.3c-8.3-3.6-14.4-0.1-19.7,5.9
			c-2.7,3-6.1,5.1-8.8,8c-6.9,7.2-10,15.8-10.7,25.5c-1.5,2.4-3.4,4.4-6,5.8c-1.8,0.6-3.6,0.7-5.4,0.5c-5.3-0.5-9,2.7-13.1,5.1
			c-1.9,0-3.8,0-5.2-1.5c1.2-1.4,2.3-2.8,3.6-4c29.1-28.9,58.3-57.8,87.4-86.8c1.4-1.4,2.7-2.9,4-4.4C800.3,1,806.7,1,813,1z"/>
		<path class="st1" d="M650,398c-14.7,0-29.3,0-44,0c-0.5-2.6,1.7-3.7,3.1-5.2c8.2-8.7,17.1-16.5,25.8-24.6c3.1-2,6.4-3.2,10.1-2.3
			c0.3,0.4,0.6,0.8,0.6,1.3c0.6,5.6,0.9,5.8,6.4,4.2c2.7-0.8,5.4-1.8,8.3-1.2c3.9,2.2,8.8,0.5,12.6,3.1c1.3,1.7,0.6,3.2-0.6,4.4
			C665.2,384.9,658,391.9,650,398z"/>
		<path class="st2" d="M850.9,347.4c-2.3-0.3-3.6,1.2-5.1,2.6c-6.1,6.1-11.9,12.3-17.9,18.5c-8.6,8.9-17.8,17.2-26.7,25.8
			c-1.2,1.1-2.2,2.5-3.3,3.7c-6.7,0-13.3,0-20,0c4.7-5.6,10.4-10.2,15.6-15.2c14.8-14.2,29.3-28.9,43.9-43.4
			c1.2-1.2,2.5-2.2,2.6-4.1c1.5-0.4,2.5,0.6,3.4,1.5C846.5,340,848.9,343.6,850.9,347.4z"/>
		<path class="st2" d="M941,1c-4.4,4.5-8.7,9.1-13.2,13.5c-14.5,14.4-29,28.8-43.4,43.2c-1.4,1.4-3.3,2.4-3.4,4.7
			c-0.4,0.3-0.8,0.4-1.2,0.3c-3.1-3-6.8-5.1-10-7.9c-0.2-0.4-0.1-0.9,0.2-1.2c10.1-10.2,20.3-20.4,30.4-30.7
			C907.6,15.6,914.8,8.3,922,1C928.3,1,934.7,1,941,1z"/>
		<path class="st2" d="M45,1C34.6,11.4,24.3,21.9,13.9,32.3C9.7,36.5,5.3,40.6,1,44.7C1,30.9,1.1,17.2,0.9,3.5
			c0-2.1,0.4-2.6,2.6-2.5C17.3,1.1,31.2,1,45,1z"/>
		<path class="st2" d="M896,90.3c11.6-11.3,23.1-22.7,34.7-34c6.7-6.6,13.5-13.1,20.3-19.6c0,6.3,0,12.6,0,18.9
			c-1,1.7-2.1,3.3-3.5,4.7c-10.9,10.8-21.8,21.6-32.7,32.5c-1.4,1.4-3,2.6-4.8,3.5c-4.3,0-8.6,0.1-12.9,0.1c-1-0.7-1.3-1.8-1.7-2.9
			c-0.2-0.7-0.2-1.3-0.1-2C895.4,91,895.7,90.6,896,90.3z"/>
		<path class="st1" d="M714,398c-14.7,0-29.3,0-44,0c-0.3-0.6-0.3-1.4,0.2-1.8c5.8-6.2,11.3-12.8,18.5-17.7
			c6.5,0.7,12.6-0.4,18.3-3.6c2.2-1.3,4.7-1.6,7.2-0.6c6.7,2.7,13,1.7,19.2-1.7c2.1-1.2,4.3-2.7,7-2c2.1,1.4,0.5,2.7-0.4,3.7
			C731.9,382.8,723.2,390.6,714,398z"/>
		<path class="st1" d="M910,96.2c13.4-13.9,26.9-27.5,41-40.6c0,13.6,0,27.1,0,40.7C937.3,96.3,923.6,96.2,910,96.2z"/>
		<path class="st2" d="M138,398c6-7.7,14.1-13.3,20.9-20.2c8.3-8.5,16.7-16.9,25.1-25.3c5,1.2,10.1,2.2,15,3.9
			c-10.8,13.9-25,24.5-37,37.3c-1.4,1.4-2.6,2.9-4,4.4C151.3,398,144.7,398,138,398z"/>
		<path class="st2" d="M635,369.3c-8.5,8.2-17,16.5-25.4,24.7c-1.3,1.3-2.4,2.7-3.6,4c-6.7,0-13.3,0-20,0
			c4.8-5.9,10.9-10.6,16.3-15.9c13-12.5,25.7-25.4,38.6-38.1c2-2,3.4-4,3.3-6.8c3.7,3.2,3.9,8,5.8,12c0.9,1.8-1.8,2.5-3.2,2.9
			c-4.7,1.5-8.7,3.9-12,7.5C630.7,364,630.8,365.3,635,369.3z"/>
		<path class="st2" d="M714,398c6.3-8.1,15-13.8,21.9-21.3c1.7-1.8,3.3-3.6,5-5.4c0.3-0.4,0.6-0.7,1.1-0.9c7.8-1.9,8.3-2.4,8.8-9
			c0.1-0.7,0.3-1.4,0.6-2c2.7-2.3,5.1-4.9,7.6-7.4c0.5-0.2,1-0.2,1.5-0.2c5.7-1,10,3.5,15.3,4.1c2.5,0.2,5.1-0.6,7.2,1.4
			c-0.3,0.2-0.5,0.6-0.8,0.6c-8.1-1.2-12.2,4.1-17,9.2c-8.9,9.5-18.6,18.1-28,27.1c-1.2,1.1-2.2,2.4-3.3,3.7
			C727.3,398,720.7,398,714,398z"/>
		<path class="st2" d="M906,398c7.9-9.6,18.1-16.8,26.6-25.8c5.9-6.2,12.3-11.9,18.4-17.9c0,7.6,0,15.2,0,22.8
			c-6.6,3.9-11.9,9.4-17.4,14.5c-2.4,2.2-4.5,4.8-7.6,6.3C919.3,398,912.7,398,906,398z"/>
		<path class="st2" d="M32.9,330.5c-10.2,11-20.9,21.6-31.9,31.7c0-6.6,0-13.2,0-19.9c3.2-4.8,7-8.9,12-11.8
			C19.7,330.6,26.3,330.6,32.9,330.5z"/>
		<path class="st2" d="M688,379.1c-6,6.3-12,12.6-18,18.9c-6.7,0-13.3,0-20,0c5.7-7.4,13.5-12.7,19.9-19.3c1.2-1.3,3-2.3,3-4.4
			c0.4-0.4,0.9-0.4,1.4-0.2c2,2,4.4,2.8,7.2,2.7c2.1,0,4.3-0.3,6.3,0.9C688.3,378.2,688.3,378.7,688,379.1z"/>
		<path class="st1" d="M926,398c5.9-7.5,13.8-13,20.4-19.7c1.3-1.3,3-1.1,4.6-1.1c0,6.1-0.1,12.2,0.1,18.4c0.1,2.1-0.4,2.6-2.6,2.5
			C941,397.9,933.5,398,926,398z"/>
		<path class="st1" d="M13,330.6c-3.7,4.2-7.6,8.3-12,11.8c0-4,0-7.9,0-11.9C5,330.5,9,330.6,13,330.6z"/>
		<path class="st3" d="M95.9,332.5c-0.5-0.7-1.1-1.4-1.6-2.1c-2.5-4.8-4.1-9.7-3.5-15.2c0.5-4.1,2-7.6,6.1-8.8
			c2.9-0.9,3.4-2.7,3.8-5c1.3-6.6,3.2-13.1,5.3-19.5c0.5-5.7,0.2-6.1-5.7-5.6c-2.5,0.2-5-0.2-7.4,0.5c-11.3-1.1-17.7-10.3-14-20
			c2.1-5.4,6.7-7.8,12.4-6.2c5.7,1.6,11.1,1.2,16.3-2.7c-3.6-1.7-7.1-3.1-10.4-4.7c-24.9-12.3-33.8-31.2-27.1-58.1
			c2-8.1,5-15.8,10.5-22.3c1.3-1.5,1-2.7,0.7-4.5c-2.3-10.3-4.5-20.8-3.4-31.4c2-19.2,12.8-22.4,28-19.9c7.4,1.2,14.3,4.5,20.8,8.2
			c2.1,1.2,3.9,1.5,6.1,0.9c7.4-2,15-3.2,22.6-3.9c3.2-0.3,4.9-1.4,5.7-4.8c0.7-3.2,2.5-6.1,3.8-9.1c6.8-9.4,15.6-12.4,26.7-8.6
			c2.5,1.2,4.9,2.5,7.4,3.7c2.3,1.2,4.7,2.1,6.8,3.6c10.8,8.7,20.4,18.5,26.4,31.1c1.6,3.3,4.1,5.5,7.1,7.4
			c10.8,7.1,20.4,15.2,26.4,27c10.6,21,8,41.2-7.8,58.5c0.2,0.1-0.7,0.4,0,0.3c0.4,0,0.8-0.5,1.2-0.6c0.4-0.2,0.9-0.3,1.4-0.3
			c1.7-0.2,3.4-0.2,5.1,0.1c2.7,0.6,4.8,2.2,6.6,4.2c0.5,0.5,0.9,1,1.3,1.5c2.2,2,2.1-0.8,3-1.5c3.9-5.9,9-10.5,15.8-12.9
			c1.6-0.6,2.5-1.4,2.4-3.2c-1.7-18.9,9.6-29.7,24.2-38.4c3.1-1.3,6.2-2.5,9.5-3c2.1-0.3,4.2-0.1,4.8,2.3c0.5,2.3-1.4,3.2-3.2,3.7
			c-8.4,2.2-14.9,7.1-20.5,13.4c-6.2,7-10.1,14.6-7.1,24.4c1.5,4.9,0.3,6.2-4.7,6.9c-10.1,1.5-19.7,12.8-19.4,22.8
			c0.2,7.7,8.2,15.6,17.1,17c2.5,0.4,5,0.3,7.5,0c2.6-0.3,4.7,0.6,5.7,3c1.4,3.3,4,4.7,7.3,5.3c1,0.2,1.9,0.4,2.9,0.8
			c1.6,0.7,3.1,1.6,2.7,3.6c-0.4,1.9-1.9,2.8-3.6,2.8c-5.4,0.1-10.3-1.4-13.7-5.7c-1.7-2.1-3.6-3.2-6.4-3
			c-7.3,0.6-13.2-2.4-18.3-7.4c-1.9-2-4.1-4-5.2-6.6c-1.1-2.5-2.3-2.5-4.5-0.9c-7.9,5.5-16.1,10.5-25.1,14.1
			c-4,1.6-8.2,2.8-12.5,3.4c-2.4,0.4-3.9,1.4-4,4.1c-1,23.1-11.9,41.8-26.4,58.9c-3.3,2.4-4.9,5.7-5.1,9.7c-0.8,2.5-1.7,5-3.2,7.2
			c-2.5,3.7-5.8,5.7-10.5,4.5c-2.4-0.3-5-0.4-7.3-1.1c-7.2-2.2-10-7.1-8.3-14.3c0.9-3.9,1.1-7.7-0.3-11.5c-2.3-2.3-1.9-5.7-3.4-8.3
			c-1-2.7-3.4-3.5-5.9-3.8c-5.1-0.6-10.2-0.6-15.4,0.1c-10.3,1.3-15.6,7.7-18.4,17c-3.3,4.4-5.4,10.2-12.1,10.9
			C104.6,341.7,100.7,336.2,95.9,332.5z"/>
		<path class="st4" d="M93,276.8c5.2-2.4,10.4-2.4,16.3-0.7c-1.2,2.1-2.2,4-3.2,5.8C101.2,281.4,97.7,277.5,93,276.8z"/>
		<path class="st5" d="M896.1,93.2c1.1,0.8,0.9,2,1,3.1c-0.3,3.7,0.6,7.6-1.5,11.1c-0.7,1.1,0,2,1.1,2.3c5.1,1.5,8.6,4.5,9.3,9.9
			c0.8,6.2-2,11.3-5.8,15.8c-2,2.4-4.1,4.8-6.9,6.4c-3,1.6-3.3,3.5-1.9,6.5c7.8,17.6,12.2,35.9,11.8,55.2
			c-0.3,12.2-1.6,24.2-12.5,32.4c-1.7,1.3-0.8,2.1,0,3.2c3.2,4,6.4,8,9.5,12.1c10,13.5,10.2,22.2,0.8,36.1c-1.9,2.8-4,5.2-3,9.3
			c0.9,3.5-2.8,5.3-5.7,5.6c-3.7,0.4-4.1,2.2-4,5.3c0.2,4.3,0,8.6,0,12.9c-0.7,3.7-0.8,7.3,0.1,11c0.6,2.6,0.7,5.1-0.6,7.6
			c-2.7,0.9-2.6-1.4-2.7-2.7c-0.2-3.8-2.2-4.7-5.6-4.5c-2,0.1-4,0.2-5.9-0.8c-2.7-2.8-1.9-6.3-1.5-9.4c0.8-6.3,0.9-12.5,0.8-18.8
			c0-3.5,0.8-6.1,4.8-6.9c3.3-0.7,5.2-2.8,4.7-6.4c-0.4-2.7,1.2-4.7,2.6-6.8c10.6-15.6,10-22.6-2-38.4c-2.3-3-4.9-5.8-7.1-9
			c-1.4-1.9-1.9-4,0.3-5.7c10-8.2,11.4-19.7,11.7-31.4c0.4-18.4-3.8-36-10.9-53c-2.4-5.7-2.3-6.3,2.3-10.1c4.9-4.1,9.1-8.7,10.9-15
			c1.5-5.5-0.1-9.8-4.9-12.8c-5.7-3.6-5.7-3.6-2.8-9.7c1.9-3.1,5-2.8,8-2.8C892.4,95.1,894.4,94.8,896.1,93.2z"/>
		<path class="st1" d="M887.1,339.4c0.2-6.3-1.1-12.7,0.8-18.9c0.3,10,0.3,10,10.2,10c4,0,7.9,0,11.9,0
			c-6.1,6.2-12.3,12.5-18.4,18.7c-0.5,0.5-1,0.9-1.6,0.1C888,346.3,888.8,342.5,887.1,339.4z"/>
		<path class="st0" d="M272.9,226.4c-0.3-0.4-0.6-0.8-0.9-1.2c-0.6-1.8,0.4-3.2,1.5-4.5c19-24.6,9.4-54.4-11-70.4
			c-9.5-7.4-18.2-14.7-24.1-25.5c-5.3-9.6-13.9-16.8-22.9-23.1c-1.7-1.2-3.9-2-4.4-4.5c1.5-1.6,3.4-0.9,5.2-0.9
			c11.6-0.1,23.2-0.1,34.9-0.1c6.3,0,12.6,0,18.9,0c15,0,30.1,0,45.1,0c6.3,0,12.6,0,18.9,0c15,0,30.1,0,45.1,0c6.3,0,12.6,0,18.9,0
			c15,0,30.1,0,45.1,0c6.3,0,12.6,0,18.9,0c15,0,30.1,0,45.1,0c6.3,0,12.6,0,18.9,0c15,0,30.1,0,45.1,0c6.3,0,12.6,0,18.9,0
			c15,0,30.1,0,45.1,0c6.3,0,12.6,0,18.9,0c15,0,30.1,0,45.1,0c1.7,0.2,3.4-0.4,5,0.7c1.2,2.9-1.2,5.7-0.3,8.7
			c2,6.2,6.1,10.5,11,14.3c2,1.5,4.1,2.9,6.3,4.1c3.5,1.9,4,4.5,2.4,7.9c-7.8,16.9-11.5,34.8-14.6,53c-1.7,9.9-2.3,20-1.1,30.1
			c0.7,5.8,3.5,10.1,8.5,13.3c4.1,2.6,8.3,5,12.8,6.8c2.9,1.2,4,2.9,2,5.7c-4.5,6.6-8.5,13.4-13.4,19.7c-2.4,1.6-4.9,3.2-7.9,1.3
			c-5.3-6.6-7.1-6.8-14.1-1.7c-4.2,3.1-8.6,6.1-11.3,10.8c-0.6,1.1-1.5,2.2-2.9,2.6c-2.3,0-2.4-1.7-2.8-3.3c-1.9-6.9-2.8-7.4-10-5.7
			c-0.8,0.2-1.6,0.3-2.4,0.1c-2.5-1.7-2.9-5.1-5.6-6.7c-5.1-5-4.5-8.6,1.8-10.6c14.4-3.8,23.5-20.1,23.3-32.8
			c-0.2-10.2-2.1-19.5-8.1-28c-3.3-4.6-7.8-7.6-12.4-10.5c-1.1-0.9-2.4-0.9-3.7-1.1c-8.3-1.4-12.3-7-11.2-15.3
			c0.1-0.7-0.3-1.3-0.6-1.8c-0.3-0.4-0.5-0.7-0.8-1.1c-2.5-3.6-4.2-7.5-5.3-11.7c-0.4-1.4-0.8-3.2-2.6-3.2c-2.2,0-1.7,2.1-1.9,3.4
			c-0.2,1.1-0.3,2.3-0.7,3.4c-1.1,2.8-2.2,5.3-5.3,1.6c-0.5-0.6-1.5-0.5-2.3-0.8c-8.4-4.7-17.1-7.3-26.8-4.4c-3.3,1-6.1-0.6-8.8-2.4
			c-12.8-8.5-26.7-13.7-42.2-13c-19.9,1-37.8,7.2-52.4,21.3c-3.1,3-6,4-10.3,2.7c-9.4-2.8-19.1-2.7-28.6-0.3
			c-4.6,1.2-8.7,0.8-13-1.2c-6.3-2.9-12.8-5.6-19.5-7.5c-22.5-6.3-44.1-4.5-64.5,7.3c-1.3,0.7-2.6,1.5-4,2.1
			c-5.5,4.7-13.1,4.8-19.2,8.2c-1,0.6-2.2,0.5-3.4,0.3c-3.8-0.8-3.5,1.8-3.5,4.2c-0.3,0.8-0.7,1.6-1.7,1.3
			c-5.2-1.3-9.6,0.6-13.9,3.2c-7.6,4.6-14,10.4-18.9,17.9c-4.1,6.3-5.3,13-4,20.3c0.2,1.1,1.6,2.7-0.7,3.1
			c-8.5,1.2-13.5,7.1-18.3,13.3C275.9,226.7,274.7,227.7,272.9,226.4z"/>
		<path class="st5" d="M211,97.2c15.4,9.6,27.6,22.2,35.5,38.6c1.3,2.6,3.6,3.8,5.8,5.2c11.4,7.5,21.6,16,27.4,28.7
			c8.4,18.5,6.9,35.8-5.5,52.1c-0.8,1-1.4,2.2-2.1,3.3c-2-1.3-4-2.7-6-4c-2-0.6-4-0.6-6,0c-0.3,0.2-0.5,0.2-0.9,0.2
			c-0.9,0.5-1.8,0.5-2.6-0.1c1.2-3.2,4.4-4.8,6.2-7.6c13-20.2,10.1-45.9-7.5-64c-5.3-5.5-11.5-10-17.9-14.1c-1.7-1.1-3.4-2-4.3-4
			c-6.4-13.8-16.3-24.7-28-34.3c-0.5-1.1,0.3-1.6,1.1-2c0.3,0,0.7-0.1,1-0.1C208.4,95.9,209.7,96.5,211,97.2z"/>
		<path class="st3" d="M717,260.1c4.9-7.4,9.7-14.9,14.6-22.3c-4.4-2.2-8.6-4.1-12.7-6.2c-8.6-4.5-12.7-11.4-12.8-21.2
			c-0.2-27.2,5.7-53.1,15.9-78.1c1.5-3.7,2-5.7-2.4-7.7c-5.8-2.6-10.5-6.9-14.2-12.2c-3.3-4.8-4.5-9.9-1.3-15.3
			c5.1-5.9,11.9-6.1,18.9-5.4c4.4,0.8,3.8-3,5-5.2c-0.4-19.9,13.3-30.6,27.4-40.8c3.8-2.7,8.8-3.3,12.6,1.2c0.1,1.2,0.2,2.5,0.3,3.7
			c1.6,2.2,1.1,4.7,1.2,7.1c0.3,7-0.8,14.1,0.7,21.1c1.1,5.4,2.4,5.7,6.7,2.4c1.9-1.5,3.8-3.2,6.4-3.6c0.3-0.4,0.5-0.7,0.8-1.1
			c0.6-0.2,1.3-0.3,1.8-0.7c4.6-3.4,6.7-3,9.7,1.7c0.6,0.9,1,2,1.5,3c0,0.3,0,0.7,0,1c2.4,3.4,0.9,6.9,0.2,10.3
			c-0.3,1.6-2,3.3-0.7,4.6c1.4,1.4,3.4-0.2,5.1-0.6c3.5-0.7,6.8-2.5,10.5-2.4c8.1-2.8,14.7-8.1,22.1-12c7.4-4,7.4-9.4,6.5-15.8
			c-0.4-2.8-1.1-5.5-1.5-8.2c-0.5-3.5-0.4-7,2.9-9.4c3.1-2.3,6.5-2.2,9.9-0.6c2.4,1.1,4.8,2.3,7.1,3.5c2.9,0.9,5.4,2.6,7.8,4.4
			c4,4.3,7.6,8.7,10.5,13.8c3.7,6.6,5.5,13.7,6.8,21.1c0.5,2.9,0.1,5.6-1,8.2c-0.4,1.2-0.6,2.6-1.3,3.7c-1.3,2-0.2,2.4,1.4,3.1
			c8.7,3.9,11,10.3,7.1,18.9c-2.4,5.2-5.9,9.7-10.9,12.6c-3.5,2-3.5,4-2,7.3c8.1,18.1,12.2,37,11.5,56.8c-0.4,9.9-1.4,19.8-9.2,27.5
			c-4.9,4.9-4.8,5,0,10.6c2.5,2.9,4.9,5.9,7.2,8.9c8.5,10.9,8.8,22,1,33.4c-2.3,3.4-5.3,6.3-4.2,11.5c0.7,3.4-3.3,4.5-6.2,5.2
			c-1.8,0.4-3.5,0.4-3.4,3.2c0.7,9.9-1.1,19.8-1,29.7c1.3,1.3,2.1,3,2.9,4.6c2,3.9,2.7,8.3-0.4,11.6c-3.2,3.3-7.2,6-12.4,3.6
			c-4.1-0.8-8.3-1.1-12.1-2.9c-4.9-2.9-5.5-9.5-10.9-12c-1.6-2.1-3.4-3.9-5.8-5.1c-7-1.1-13.6-3.9-21-3.6c-5.4,0.3-10.5,1-15.2,3.8
			c-5,2.7-9,6.6-12.2,11.3c-1.3,1.9-2.8,3.6-4.4,5.3c-6,6.3-13.5,6.6-21.4,5.3c-0.3,0-0.7-0.1-1-0.1c-4.5-0.5-7.3-3-8.1-7.6
			c-0.5-2.8-0.3-5.6,0.6-8.2c0.7-2.1,0.9-4.1-0.3-6.1c-2.3-4-4.3-8.1-6.4-12.2c-1.1-2.3-1.7-4.9-2.7-7.2c-1.4-2.1-0.7-5.4-3.5-6.8
			c-1.8-0.3-3.7-0.1-5.4-0.5c-4.3-0.9-7.1-3.8-7-8.3c0.1-3.4-1.3-5.6-3.6-7.6c-3.4-3-5.9-6.6-7.8-10.7
			C712.4,271,712.9,265.3,717,260.1z"/>
		<path class="st6" d="M812,93.4c-4.9,2.4-10.2,3.6-15.3,5.3c-3.4,1.1-3.3-1-2.5-2.5c2.6-4.7,2.7-9.7,2.8-14.8
			c0.9-0.2,2-0.2,2.8-0.6c5.6-3.3,10.5-0.6,11.1,6.1C811.2,89.1,810.1,91.5,812,93.4z"/>
		<path class="st7" d="M865.7,55.7c-2.2-1.7-4.5-3.3-6.7-5c4-0.2,7.4,2,11.1,2.9c0,0.3,0,0.6,0.1,1
			C868.9,56.2,867.4,56.4,865.7,55.7z"/>
		<path class="st0" d="M609,330.6c-6.3,0-12.6,0-18.9,0c-15,0-30.1,0-45.1,0c-6.3,0-12.6,0-18.9,0c-15,0-30.1,0-45.1,0
			c-6.3,0-12.6,0-18.9,0c-15,0-30.1,0-45.1,0c-6.3,0-12.6,0-18.9,0c-15,0-30.1,0-45.1,0c-6.3,0-12.6,0-18.9,0c-15,0-30.1,0-45.1,0
			c-6.3,0-12.6,0-18.9,0c-15,0-30.1,0-45.1,0c-2.2,1.2-4.3,1.8-6.2-0.4c-0.6-2.3,1-3.7,2.1-5.3c4.4-6.4,8.5-13,11.8-20.1
			c4.4-9.3,6.8-19.3,7-29.7c0.1-3,0.9-5.1,4.3-5.6c10.6-1.5,20-5.9,29-11.4c1.6-1,3.2-1.8,5.1-2c1.5,0,2.4,0.9,3.4,1.8
			c4.6,4,9.8,6.2,15.9,5.5c2.8-0.3,4.8,0.4,6.7,2.9c4.9,6.2,11,7.3,18.3,3.9c2.9-1.4,6-0.3,7.5,2.6c0.5,1,0.7,2.2,1.4,3.1
			c0.3,0.3,0.6,0.7,0.9,1.1c0.8,1,1.2,2.3,1.9,3.3c1.4-1.3,0.7-3.5,2.2-4.7c3.6-5.2,5-5.7,10.2-4c2,0.7,3.7,1.4,3.9,3.9
			c0.1,1.8,1.4,2.5,2.9,2.9c3.9,1.9,7.4,4.3,11,6.6c8.8,4.4,18.4,5.8,27.9,7c23.1,3.1,45.7,1,67.8-6.5c3.7-1.3,7-1,10.5,0.8
			c7.8,3.9,16.3,5.3,25,6c8,0.6,15.8,1.2,23.8,0c7.1-1.1,13.7-2.4,17.5-9.5c1.1-2.1,3.1-3.5,5.8-2.7c2.6,2.2,3.3,5.4,3.8,8.5
			c0.7,1.8,1.5,1.8,1.9,0c0.5-2.1,0.6-4.2,1-6.4c1.7-8.3,4.2-9.2,11.2-3.9c0.1,0.3,0.3,0.7,0.2,0.9c-3.8,8.1,1.9,15.2,2.4,22.8
			c0.3-7.7,4.6-15.1,1.3-23c2.6-2.6,5.2-2.3,7.4,0.4c0.8,1,1.5,2.1,2.8,2.6c17,5.3,33.8,4.4,50.3-2.2c2.7-1.1,5.2-3.1,8.4-2.9
			c2.6,3.1,0.2,5.7-1.7,7.1c-6.7,5.2-12.1,11.2-14.5,19.6c-0.6,2-2.4,2.6-4.4,2.3c-2.3-0.4-4.6-0.6-7-0.4c-1.1,0.1-2.5,0.1-2.7,1.6
			c-0.2,1.4,1,2,2.1,2.3c2.2,0.7,4.5,1,6.8,1.5c1.3,0.3,2.8,0.4,3.1,2c0.3,1.6-1.2,2.2-2.2,3c-1.6,1.4-5.6,1.7-4,4.4
			c1.4,2.5,4.5,0.1,6.7-0.6c2.7-0.9,5.5-3.2,7.7,0.8c0.1,0.7,0,1.3-0.4,1.9c-1.9,3.2-0.6,4.3,2.7,3.9c1.5-0.2,2.9-0.5,4.4-0.1
			c1.3,0.6,3,0.8,2.9,2.8c-3.7,2.1-7.8,0.7-11.6,1C617.3,330.7,613.1,330.5,609,330.6z"/>
		<path class="st8" d="M183.1,351.4c7.7-0.5,10.7-5.9,12.9-12.1c4-3,6.5-7.8,11.3-9.8c3.4-0.2,6.9-1.3,10,1.2c0.5,1,0.4,2.1-0.4,2.8
			c-4,3.5-5.5,8.5-7.7,13c-1.9,4.8-5.1,8.3-10.1,9.9c-5.5,0.4-10.6-0.5-15-3.9C183.7,352.1,183.4,351.8,183.1,351.4z"/>
		<path class="st9" d="M209.1,346.4c-0.2-6.5,3.8-10.7,7.8-14.9c0.7-0.6,0.2-2.3,1.9-1.9c1.8,1.8,4.1,0.6,6.1,1
			C220.1,336.3,214.7,341.4,209.1,346.4z"/>
		<path class="st3" d="M622.9,321.7c-0.7-1.9-1.7-2.6-3.7-1.6c-2.4,1.2-4.9,2.1-7.4,3c-2,0.7-4.1,0.9-5.2-1.4
			c-1.1-2.4,0.6-3.7,2.4-4.7c2-1.1,4-2,7.3-3.6c-4.3-0.7-7.3-1.2-10.2-1.8c-2.5-0.5-5.3-1.2-4.9-4.4c0.4-2.9,3.2-3,5.6-2.7
			c3,0.3,6.4,1.7,8.7,0.6c1.8-0.9,1.8-4.9,3-7.4c2.4-5.2,6.2-9.3,11-12.5c2.6-1.8,4.2-4.1,4.5-7.2c3.4-5.4,8.2-9.6,12.1-14.7
			c1.4-2,3.3-3.4,5.7-4.2c1.9-0.5,3.2-2,5-2.8c1.8-0.1,3.6,0.1,5.3,0.8c2.4,1.7,3.3,4.3,4.1,7c1.3,7.2,5.9,9.7,12.9,8.9
			c0.9-0.1,1.8,0.9,2.8,0c3.8-6.8,9.5-11.8,16.1-15.7c6.4-3.8,9.2-2.8,12.4,3.8c4.1,4.7,2.9,11,4.9,16.3c0.6,4.8,2.3,9,5.6,12.9
			c2.7,3.1,4.4,7,4.8,11.2c0.2,2,0.6,4,2.7,4.9c2.1,0.9,4,2,3.6,4.6c-0.4,2.9-2.9,3.3-5.1,3.9c-0.6,0.2-1.3,0.3-1.6,1.1
			c0.8,1.7,2.8,1.5,4.1,2.4c1.6,1.1,2.9,2.3,2.4,4.4c-0.5,2.1-2.3,2.6-4.2,2.8c-2.9,0.4-5.7-1.7-9.1-0.5c1.1,2.5,3.7,2.9,5.2,4.5
			c3.7,2.8,5.3,7.1,7.9,10.7c5.7,4.7,8.9,10.4,8.1,18.1c-0.5,4.4-2.5,7.7-6.7,8.1c-7.1,0.7-13.2,4.2-20,5.8c-3.4,0.1-6.7,0.1-10.1,0
			c-0.8,0-1.6-0.2-2.4-0.4c-2.7-1.2-5.1-0.6-7.5,0.8c-4.1,2.4-8.6,3.2-13.3,3.4c-2,0.1-3.9-0.7-5.4-2.1c-0.3,0-0.7,0.1-1,0.1
			c-1.4-1.5-3.3-1.2-5-1c-2.9,0.2-5.5-0.5-7.8-2.2c-3.6-6-9.9-3.6-15.1-4.7c-3.4,0.7-7,0.9-10,2.9c-5.6-1.3-6.5-3.1-3.4-7.7
			c4.3-6.4,10.5-9.9,18.2-11.4c-2.7-4.2-4.5-8.4-5.6-12.9c0-1.1,0.6-2.5-1-2.8c-3.8-0.9-6.6-3.5-10.1-4.9c-1-0.7-2-1.4-3-2.1
			C627.1,326.2,623.9,325.3,622.9,321.7z"/>
		<path class="st6" d="M883.1,98.2c0.2-10.5-2.8-20.2-7.2-29.5c-1-3.7,0.1-6,4.2-6.2c0.3,0,0.6,0,0.9-0.1c7.9,7.7,12.2,17.5,15,27.9
			c0,0.4-0.1,0.7-0.1,1.1c-0.9,2.3-2.7,3.8-4.9,4.9C888.3,96.5,885.1,95.2,883.1,98.2z"/>
		<path class="st10" d="M783,357.3c-2.7-0.1-5.3-0.1-8-0.2c-0.5-1.5,0.6-2.5,1.5-3.4c7.5-7.5,15-15,22.6-22.4c1-0.9,2.1-1.7,3.4-2
			c3.4-0.6,6.9-0.5,10.4-0.2c1.6,0.1,3.8-0.3,4.2,2.3c-8,3.4-14.4,8.5-19.1,15.9C794.5,352.8,789.3,355.9,783,357.3z"/>
		<path class="st11" d="M817,331.5c-5.2-2.1-10.7-0.5-16-1c-1.5,0.7-3.1,1.7-4-0.8c12.5-6.9,24.9-5.4,37.2,0.7
			C828.5,330.6,822.7,329.9,817,331.5z"/>
		<path class="st6" d="M111.9,340.3c5.4-1.9,7.6-6.9,11.1-10.7c4.9-0.7,9.8-1.1,14.7,0.4c1.7,1.8,0.6,3.2-0.8,4.5
			c-3.4,3.8-5.9,8.7-11,10.9C120.1,346.8,116.6,342,111.9,340.3z"/>
		<path class="st6" d="M783.2,77.6c-3,2.5-6.1,5-9.1,7.5c-1.8,1.5-2.9,1.1-3.7-0.9c-1.6-3.7-2.5-7.5-2.5-11.5
			c0.1-7.4,0.2-14.8,0.2-22.2c1.6-0.5,3.1-1,4.7-1.4c5.8-1.5,9,0.8,9.1,6.7c0.1,5.6,0,11.1,0,16.7C782,74.3,781.4,76.2,783.2,77.6z"
			/>
		<path class="st0" d="M164.8,315.6c1.2,2.8,2.4,5.7,2.3,8.8c0.7,4.7-1.1,7-6.1,6.1c-6.3,0-12.6,0-18.9,0c-1.5,0.8-2.7,0.8-3.6-0.8
			c-1.1-3.4,1.1-5.6,3-7.8C146.7,315.9,158.3,312.8,164.8,315.6z"/>
		<path class="st6" d="M863,350.3c2.3-0.2,4.6-0.2,6.8-1.1c7-2.9,8.6-7.9,4.2-14.1c-1-1.5-1.6-2.9-1.1-4.6c1.2,0,2.3,0,3.5,0
			c2.8,0.1,6-0.6,8.3,0.5c2.6,1.3,0.5,4.9,1.4,7.3c0.1,0.4,0.6,0.7,0.9,1.1c4.2,2.4,2.8,6.4,2.9,9.9c-1.3,1.3-2.7,2.6-4,3.9
			C877.8,356.4,870.1,355.6,863,350.3z"/>
		<path class="st12" d="M206,95.3c-0.4,0.7-0.7,1.4-1.1,2c-2-1.4-3.9-2.7-5.9-4.1C201.6,93.2,203.8,94.4,206,95.3z"/>
		<path class="st13" d="M138.9,329.4c0.7,1.2,2,1,3.1,1.2c-1.6,1.5-2.2,4.2-5.1,3.8c0.3-1.3,0.7-2.6,1-3.9
			C137.7,329.7,138.1,329.4,138.9,329.4z"/>
		<path class="st14" d="M727.9,86.4c0.3,2.2,0.5,4.4,0.8,7.2c-2.2-0.8-4-1.4-5.8-2C724.1,89.3,725.9,87.8,727.9,86.4z"/>
		<path class="st15" d="M645,366.4c1-0.2,1.9-0.4,2.9-0.6c8.1-1.4,8.1-1.4,12.2,5.3c-2.7,0.6-5.5,1-8.2,1.8c-2.4,0.7-4.5,2.2-6.9,0
			C642.9,370.6,644.7,368.5,645,366.4z"/>
		<path class="st16" d="M880.1,62.5c-2.4,1.4-4.4,3.1-4.2,6.2c-3.4-4.3-6.8-8.7-10.2-13c1.5-0.4,2.9-0.8,4.4-1.2
			C874.1,56.4,877.9,58.5,880.1,62.5z"/>
		<path class="st17" d="M891,96.3c1.2-2,2.9-3.6,4.9-4.9c0.1,0.6,0.1,1.2,0.2,1.9C896.2,97.2,893.2,96.1,891,96.3z"/>
		<path class="st6" d="M700,371.2c0.6,0,1.3,0,1.9,0c3.8,0.8,7.6,0.6,11.4,0.1c6.1-1.7,11.3-5.2,18.1-5.6c7.4-0.5,9.4-11.4,4.2-19
			c-1.6-2.3-4.5-3.4-5.7-6.1c-1.4-3.3,0.7-5.4,2.9-7.4c5-0.2,7.3,3.5,9.4,6.9c2,3.2,4.2,6.2,6.8,9c2.5,2.7,5.4,5.7,3.2,10
			c0,0.7-0.1,1.3-0.1,2c-2.5,4.1-5.7,7.5-10,9.8c-0.4,0.1-0.7,0.1-1.1,0.2c-3.6-0.3-6.2,2.2-9.1,3.6c-5.7,2.7-11.5,3.5-17.3,0.9
			c-3-1.3-5.5-0.7-8,0.7c-5.9,3.3-12,4.5-18.6,2.7c0-0.3,0-0.7,0-1c1.9-2.6,4.3-4.8,7-6.5C696.4,370.8,698.2,370,700,371.2z"/>
		<path class="st18" d="M752.1,359.2c-0.2-1.3,0-2.9-0.7-3.8c-6.1-7.4-9.7-16.7-18.3-22.1c-0.8,0-1.5-0.3-2.1-0.7
			c-1.6-1.6-2.3-3,0.7-3.6c4.1,0.2,8.1,0.1,12.2,0.1c2.7,0,5.5-0.2,8.2,0.3c2.2,1.9,2.1,4,1.1,6.6c-3.1,8.4-1.7,11.9,5.9,16.3
			C757.8,355.7,755.6,358.1,752.1,359.2z"/>
		<path class="st19" d="M797,329.7c1.1,1.3,2.6,0.7,4,0.8c-7.3,7.4-14.7,14.9-22,22.3c-1.4,1.4-2.7,2.9-4,4.4c-0.5,0-1.1,0.2-1.5,0
			c-4.2-2.5-8.7-4-13.5-4.7c12,1.2,20.6-3.5,26.6-13.9C789,334.6,792.8,331.7,797,329.7z"/>
		<path class="st20" d="M742,371.1c3-3.6,6.2-7,10-9.8C752.1,368.5,749.7,370.8,742,371.1z"/>
		<path class="st21" d="M700,371.2c-2.9-0.1-4.9,1.5-6.9,3.3c-1.5,1.4-2.6,3.5-5.1,3.6c-2.8,0-5.7,0.1-8.5-0.1
			c-2.5-0.2-5-0.7-5.5-3.9c6.9,1.6,13.2,0.6,19.3-3C695.1,370.1,697.8,368.6,700,371.2z"/>
		<path class="st22" d="M652.1,260.1c-2.2,0.6-3.8,2-5.2,3.7c-19,17.5-41.5,23-66.8,19c-2-0.3-4.2-1.7-5.8,0.9
			c-1.6,0.2-2.4-0.7-2.9-2c-1.5-4-3.8-3.5-6.6-1.5c-1.6-0.2-3-1.3-4.8-1.1c-1.7-2.1-4.6-1.1-6.7-2.6c-1.2-0.9-1.5,1.3-1.8,2.2
			c-0.9,3.5-1.7,7-1.8,10.6c0,1.4-0.6,3.2-2.4,3.2c-1.9,0.1-2.4-1.4-2.3-3.1c0.6-0.9,2.1,2.4,2.3-0.6c0.4-5.6,1.6-11,3-16.5
			c1-4.2-3.8-7.1-5.8-10.8c-2.1,4.7-5.7,8.9-1.7,14.2c1,1.3,1.6,3.3,0.1,5.1c-2.8-0.3-4.8,1.3-5.5,3.4c-2,5.5-6.7,7.5-11.5,8.4
			c-19.6,3.8-38.9,2.8-57.4-5.6c-2.3-1-4.2-1.3-6.6-0.4c-19.9,6.9-40.4,9.5-61.3,8c-11.9-0.9-23.6-3-34.9-7.1
			c-1.1-0.4-2.2-0.8-2.7-2c1.6-1.1,3.2-0.6,4.8-0.1c30.5,9.8,61,9.2,91.3-0.8c4.6-1.5,8.6-1.3,12.9,1c5.5,3,11.6,4.1,17.7,4.9
			c9.6,1.1,19.1,2.6,28.8,0.7c4.6-0.9,9.1-1.7,13-4.5c-8.4,2-16.8,3.8-25.5,3.3c-12.6-0.8-25.3-1.1-36.8-7.6
			c-3.6-2-7.1-0.8-10.6,0.4c-15.5,5.5-31.6,8.5-48,8.1c-18.7-0.5-37.2-2.8-54.1-11.9c-1.3-0.7-2.7-1.9-3.3,0.7
			c-1.7,0.2-2.9-0.7-3.7-2.1c-4.1-7.3-7.5-7.5-12.7-0.9c-1.8-5.9,0.8-11.1,3.1-16c2-4.3,2.1-7.2-1.7-10.3c-2.9-2.3-3.8-6.1-6.1-9.7
			c-2.6,5.2-3.7,10.5-7.7,14.2c-1.3,1.2,0,2.8,0.8,4c2.3,3.9,4.1,8,5.5,12.2c0.7,2.1,2,4.3,0.3,6.6c-2.1-6.5-5.3-7.9-12.3-5.3
			c-5.4,2-11.5-0.6-15.3-5.8c-1.5-2-3.2-3.1-5.8-2.8c-6.7,0.8-12.4-1.5-17.3-6c-0.6-0.5-1.5-0.6-2.2-0.9c-0.2-1.8,0.7-1.6,1.8-1
			c5.9,5.1,12.5,8.1,20.5,7.1c2-0.2,2.8,0.6,3.8,2.3c3.1,5.1,8.4,6.1,13.8,6.4c1.3,0.1,2.9-0.2,3.1-1.9c0.2-1.8-1.3-2-2.6-2.3
			c-1.6-0.3-3.3-0.5-4.9-0.9c-2.3-0.6-5.2-1.4-5.4-3.8c-0.4-4.7-2.9-4.6-6.5-4.1c-4.5,0.6-9,0.1-13.1-2.1
			c-11.2-5.9-14.6-16.8-8.1-27.6c4.3-7.1,9.5-13.4,19.2-12.7c2.3,0.2,3.2-1.1,2.4-3.1c-3.3-8.2-2.5-15.8,2.6-23
			c6.2-8.8,14-15.5,24.6-18.4c1.6-0.4,4.4,0.1,3.6-2.7c-0.6-2.1-3.1-1.6-4.8-1.1c-3,0.8-6,1.9-9,2.9c3.1-4.1,7.9-3.7,12.2-4.2
			c1.2-0.1,2.7,0.8,2.8-1.4c1.7-1.1,2.7-2.8,3.6-4.5c2.6,1.5,4.2-0.8,6.2-1.5c5.4-2.1,11.4-2.7,16.1-6.6c0.4,1.5,0.9,1.7,2.4,0.9
			c26.9-15.4,54.3-14.3,81.8-1.7c1.5,0.7,3.1,1.3,4.5,2.1c3.8,2,7.3,2.1,11.8,0.8c9.6-2.9,19.8-3,29.5,0c4.7,1.4,7.8,0.3,11.6-2.8
			c23.3-19.1,49.2-26.4,78.5-15.2c5.2,2,9.8,5,14.2,8.2c3.4,2.5,6.7,3.1,10.7,1.5c8.9-3.5,17.3-1.5,25.3,2.9
			c1.1,0.9,1.1,0.9,1.5,0.5c-0.1-0.4-0.1-0.7,0.1-1c3.1-2.5,2.2,2.2,4.1,2.1c1.4-2.2,2-4.6,1.9-7.3c-0.1-1.8,0.3-3.3,2.4-3.7
			c2.3-0.4,3.6,1,4,2.9c1,5,3.6,9.4,5.6,14c-3.6,0-4.5-2.8-5.7-5.3c-1.2-2.3-1.2-5.1-3.4-8.7c-0.4,6.2-2.6,10.6-5.5,14.6
			c-0.7,1,0,2.2,0.5,3.3c2.7,5.3,4.2,11.1,6,16.7c0.3,1.8,1.2,3.5,0.7,5.3c1.1-1.1,0-3,0.8-4.4c2-7.3,3.2-14.8,6.7-21.6
			c1.4,0,2,0.8,2.1,2.2c0.8,13.9,1.9,12.4,12.9,14.8c0.4,0.1,0.7,0.6,1.1,0.9c-0.7,0.8-1.7,0.9-2.8,1.3c14.7,8.6,20.5,21.7,20.1,38
			c-0.5,17-10.1,27.5-24.6,33.4c1.2-0.9,2.8-0.5,4.3,0.8c-0.6,2.1-4.3-0.6-4.2,2.6c0.1,2.6,0.1,5.2,3.2,6.2c-2,0-4,0-6,0
			c-0.8-1.2,0-2.5-0.1-3.8c-0.2-1.6-1-2.8-2.6-3.2c-1.8-0.5-3.2,0.3-4.2,1.7c-0.9,1.3-0.8,2.7,0.1,4.1
			C650.2,257.3,652.4,257.8,652.1,260.1z"/>
		<path class="st0" d="M171.8,312.8c-2.4-8.1-8.2-10.4-16.1-9.7c-5,0.4-10,0.4-14.9,0.8c-14.7,1.3-20,12.4-25.2,23.7
			c-0.5,1-0.6,2.2-0.9,3.3c-0.2,0.4-0.6,0.8-1.2,1.6c-2.6-7-5.9-13.3-12.5-18.3c3.3-0.5,4.2-2.5,4.7-5.1c3.1-14.4,10-27.2,18.2-39.3
			c1.1-1.4,0.6-3.6,2.4-4.6c0.3-0.2,0.6-0.3,0.8-0.5c-0.2-0.2-0.3,0.1-0.5,0.1c-0.9,0.3-1.6,1.1-2.4,1.6c-5.5,1.8-11.1,1.6-16.7,1.5
			c-4.2-0.1-8.3-0.7-12.6,0.9c-3.1,1.2-6.5-0.5-9.1-2.8c-2.2-2.9-1.8-5.9-0.1-8.8c1.1-1.9,3-3.1,5-1.7c5.9,3.9,12,2.1,17.7,0.3
			c6.8-2.1,13.2-5.2,19.4-8.9c0.3-2.6-2.2-0.8-2.9-1.8c-27.1-7.3-42-25.3-41.1-53.6c0.2-7,2.9-13.5,5.1-20.1
			c0.5-1.6,1.4-2.6,3.3-1.9c26.7,0,50.5-8.7,70.6-25.7c6.2-5.3,10.3-6.6,18.4-4.6c17.7,4.4,35.9,7.2,54.3,2.9c0.9-0.2,1.6,0,2.3,0.6
			c10.3,9,20.7,17.9,24.2,31.9c4.6,18.2-0.6,33.3-14.7,45.4c-7,6-15.2,10-23.6,13.7c-1.2,0.5-3,0.9-3,2.2c0,1.7,2,2,3.4,2.4
			c7,1.9,14,2.5,21.3,1.8c3.1-0.3,4.1-3.1,6.5-4c2.9-3.6,5.8-1.5,8.6,0c1.1,2.1,1.6,4.4,2,6.7c-3,5.4-8.2,7.4-13.7,8.6
			c-9.4,2-18.9,2.8-28.3-0.6c-0.5-0.2-0.9,0.2-1.2,0.6c0.6,17.4-1.6,34.3-9.1,50.3c-1.6,3.3-3.5,6.4-5.8,9.2
			C197,319.7,179.8,320.8,171.8,312.8z"/>
		<path class="st23" d="M210.9,110.8c6.9,5.5,11.9,12.6,15.4,20.4c1.5,3.3,4.7,4.5,6.1,7.4c-1.5,1.2-3.2,1.2-4.9,1.2
			c-17.1,0.6-34.2-0.2-50.2-6.2c-7.1-2.7-9.6-0.7-14.3,3.7c-16.1,15.2-36,22.8-57.6,26.5c-3.8,0.6-7.6,1.3-11.4,0.8
			c-1.3-1.7-0.3-3.3,0.6-4.5c2.8-4,2.7-8.1,0.8-12.2c-3.5-7.8-4.3-16.3-5.6-24.6c-0.5-3.1-0.6-6.3,1.1-9.2c4.7-3.6,9.5-1.8,14.2-0.3
			c4.9,1.6,9.5,4,13.6,7c5.1,3.7,10.3,4.2,16.4,2.6c9.7-2.7,19.7-4.6,29.8-5.4c3.6-3,8.2-2.5,12.3-3c3.8-0.4,4.4-1.8,3.3-5.1
			c-1.2-3.6-1-7.5-0.9-11.3c0.1-2.1,0.5-3.9,2.4-5.1c4.5,0.2,8.9,0.8,12,4.6c7.8,5.4,12.4,13.9,19.5,20.3
			C213.1,115.5,209.2,114.1,210.9,110.8z"/>
		<path class="st5" d="M279.9,256.1c-0.6,0.3-1.2,0.7-1.8,1c-9.9,5.3-19.4,11.8-30.9,13.2c-5.4,0.6-6.2,2.9-6.4,7.8
			c-0.5,11.5-3.7,22.4-9.6,32.4c-3.9,6.5-7.2,13.4-12.3,19.1c-0.6,0.7-1.2,1.3-1.9,1.9c-3.5-2.1-7.3-0.5-11-0.9
			c-2,0.9-4,2.1-5.1-1.1c7.9-8.8,14-18.8,19.2-29.4c4.5-9.3,6.6-19.4,7-29.7c0.1-1.9-0.5-3.9,2.6-4.3c16.6-2,30-11,43.7-20.4
			C274.7,249.4,277.2,252.8,279.9,256.1z"/>
		<path class="st24" d="M92.1,169.5c-0.6,0.5-1.6,0.8-1.9,1.4c-7.9,20.2-7.9,39.6,6.7,57.1c5.7,6.9,13.9,10.4,21.8,14.2
			c2.4,1.1,4.9,1.9,7.4,2.8c-1.7,0.9-3.5,0.7-5.3,0.1c-13.2-5.8-27.6-9.6-37.3-21.3c-6.6-7.9-8.4-17.3-7.7-27.4
			c0.6-8.7,2.9-16.8,6.2-24.8c1.4-3.3,3-5.3,6.8-3.1C89.8,169.1,91,169.2,92.1,169.5z"/>
		<path class="st25" d="M171.8,312.8c11.2,5.9,22.1,5.4,32.5-2c-0.9,5.6-5,9.2-8.5,13.1c-3.3,3.6-6.2,7-6.8,12.2
			c-0.3,2.9-1,6.2-4,8.2c-3.9-2.7-6-7.5-10.9-8.8C175.9,327.6,174,320.2,171.8,312.8z"/>
		<path class="st5" d="M138.9,329.4c-0.3,0.4-0.6,0.7-0.9,1.1c-5-0.6-10.1,1.1-14.9-1c5.4-16.2,22.5-24.1,38.6-17.8
			c1.9,0.7,3,2,3.2,3.9c-7.1-0.4-13.9,0.7-19.8,4.7C142,322.5,139.4,325.3,138.9,329.4z"/>
		<path class="st26" d="M90.9,114.1c0.1,11.9,1.7,23.5,6.4,34.6c1.7,4,1.8,7.9-1.2,11.5c-1.1,1.3-2,2.7-2,4.4c-1.7,0-3.3,0-5,0
			c-1.4,0-2.3-1-2-2.3c2.4-7.9-1.3-15.3-1.7-23c-0.4-6.1-1.1-12.2,0.6-18.2C86.8,118.2,88.1,115.6,90.9,114.1z"/>
		<path class="st27" d="M219.2,251.3c4.2-3,8.3,0.5,12.5,0.3c11-0.5,22.2-0.1,30.3-9.6c-0.2-1.9,1.4-2.5,2.6-3.4
			c3.4-0.9,2.4-4.9,4.6-6.6c1.9,6.3,0.8,9.8-6.7,14.5c-10.5,6.7-21.5,12.5-34.2,14.1c-3.3,0.4-5.9,0.9-5.5-3.9
			C223.1,254.5,222.2,251.9,219.2,251.3z"/>
		<path class="st26" d="M182.1,93.6c-2.1,6.5-1.7,13,0.8,19.2c1.1,2.8,0.4,3.2-2.3,3.4c-5.2,0.3-10.4,1.2-15.7,1.8
			c2.1-4.9,2.3-10.5,5.2-15.2C173,98.2,176.2,94.2,182.1,93.6z"/>
		<path class="st28" d="M269.3,232c-0.5,5.8-0.6,6.1-4.4,7.1c-2.4-4.8-2.4-4.8-5.5-6c-1.4,1.2,1.8,1.9,0.4,3.2
			c-2.7,0.6-5.3-2.6-8-0.1c1.3-2.4,2.6-4.8,4.7-6.8C261.9,224.3,266.1,225.1,269.3,232z"/>
		<path class="st29" d="M210.9,110.8c-0.1,2.3,2,3.3,2.8,5c0.7,1.5,2.5,2.8,0.8,5.3c-7.5-7.3-14-15.2-20.5-23
			C201.3,100.2,205.9,105.8,210.9,110.8z"/>
		<path class="st30" d="M98.6,317.5c5.7,3.6,8.8,8.8,11.3,14.6c0.4,0.9,0.7,2.2-0.4,2.6c-0.7,0.3-1.9-0.1-2.8-0.5
			C101.5,332,97.7,324.2,98.6,317.5z"/>
		<path class="st31" d="M85.8,266.1c4.5,0.7,9,4,13.5-0.3c0.6-0.6,2.8,0.3,4.3,0.5c7.2,1.1,14.4,1.7,21.4-1.3c1.2-0.7,2-0.7,2,1
			c-1.5,0.9-1.3,3.2-3.1,3.9c0.3-2.1-1-2.2-2.4-1.8c-7.6,2-15.5,0.4-23.1,1.6c-3.6,0.6-7,1.6-10.3-0.5
			C87,268.4,85.9,267.6,85.8,266.1z"/>
		<path class="st32" d="M174.1,335.4c6.4-0.4,8.1,4.8,10.9,8.8c-2.5,2.1-5.2,1.9-7.8,0.3C173.7,342.3,173.3,339,174.1,335.4z"/>
		<path class="st33" d="M200.9,329.4c1.4,1.8,3.4,0.9,5.1,1.1c-3.1,3.2-5.3,7.5-10.1,8.8C195.4,334.9,197.4,331.8,200.9,329.4z"/>
		<path class="st34" d="M252.3,225.4c-4,8.4-6.6,10.1-14.6,9.7C242.7,231.8,247,228.9,252.3,225.4z"/>
		<path class="st35" d="M272.9,226.4c1.4-0.3,2.9-0.6,4.3-0.9c-0.3,1.4-0.8,3.1-2.2,3.4C273.6,229.3,273.3,227.6,272.9,226.4z"/>
		<path class="st36" d="M120.9,245.2c1.8,0,3.5-0.1,5.3-0.1c0.9,0.2,2.1-0.2,2.5,1.1c0.1,0.2-0.5,0.6-0.8,0.9
			C125.8,245.2,122.9,246.9,120.9,245.2z"/>
		<path class="st37" d="M256.5,221.3c0.9,0,1.7,0.1,2.6,0.1c-1.5,1-3,2-4.9,3.2C254.4,222.6,255.4,221.9,256.5,221.3z"/>
		<path class="st37" d="M260,221.2c2-1.4,4-1.4,6,0C264,221.2,262,221.2,260,221.2z"/>
		<path class="st38" d="M632,148.9c0.3,0.4,0.6,0.8,0.9,1.2c0,1.7-0.9,1.4-1.9,0.8c-8.6-4.9-17.7-6.5-27.1-2.6
			c-3.7,1.6-6.2,0.6-9.1-1.5c-13.5-9.7-28.4-15.2-45.3-13.7c-19.2,1.7-36.1,8.6-49.6,22.6c-2.1,2.2-3.9,2.4-6.6,1.5
			c-9.5-3.4-19.2-3.4-29.1-2.1c-1.2,0.2-2.6,0.1-3.4,0.8c-5,4.7-9.3,0.9-13.6-1.1c-15.4-6.9-31.2-12.8-48.5-10.9
			c-13.7,1.4-27.1,4.1-38.2,13.2c-0.7,0.6-1.5,1-2.2,0.6c-1.2-0.7-0.6-1.8-0.2-2.6c0.4-0.8,1.2-1.5,1.8-2.3
			c25.3-16.1,51.9-17.3,79.3-6.3c9.6,3.9,18.5,7.7,29.4,4.3c7.8-2.5,16.2-0.5,24.1,1.8c2,0.6,3.4,0.7,5.2-1.2
			c18.4-19.9,61.3-35.2,96.5-11.1c4,2.8,7.6,4.1,12.8,2.7C616.3,140.5,624.6,143.5,632,148.9z"/>
		<path class="st39" d="M663,248.2c-2-0.1-4.1-0.3-6.1-0.4c15.5-7.2,25.7-17.8,25.3-35.6c-0.4-16.6-6.8-29.6-23.5-36.5
			c2.6-2.2,5.1-0.8,7.4-0.8c24.1,11.4,30,52.5,6,69.5C669.2,246.2,666.2,247.4,663,248.2z"/>
		<path class="st40" d="M681.7,272.9c-4.3,2.3-8.8,0.5-13.2,0.9c-1.3,0.1-1.5-1-1.6-2c-0.3-2.6-0.6-5.2-0.8-7.8
			c0.8-0.2,1.6-0.4,2.3-0.7c7.1-2.9,10.3-1.2,11.6,6.5C680.2,271.1,680,272.5,681.7,272.9z"/>
		<path class="st41" d="M656.4,155c-0.6-4.8-1.1-9.6-4.4-13.4c-0.7-0.8-1.3-1.6-0.4-2.6c3-3.4,2.9-7.8,3.7-12.1
			C660.7,132.4,661.2,147.8,656.4,155z"/>
		<path class="st42" d="M714.1,277.9c-1.3-5.6-2.6-11.2-3.9-16.8c2.6,1.9,4.5-0.7,6.8-1c-1.5,5.5-3.6,11.1-0.9,16.8
			C715.7,277.8,715.2,278.3,714.1,277.9z"/>
		<path class="st43" d="M337.7,160.9c0.9,3.1,0.1,5-3.6,4.5C331.5,161,333.9,160.5,337.7,160.9z"/>
		<path class="st44" d="M600.6,142.8c-1.4-1.3-2.8-2.6-4.2-3.9C598.9,139,600.2,140.5,600.6,142.8z"/>
		<path class="st45" d="M734.2,125.1c-0.1-0.6-0.2-1.3-0.2-1.9c-1.7-2.5-4-4.3-6.7-5.7c-4.4-2.4-8.5-5.2-11.9-8.9
			c-2.6-2.9-4.6-6.2-2.3-10.2c2.7-1,5.3-1.5,8-0.2c0.8,1.5-0.2,3.8,2.2,4.5c2.2,0.6,2.7-1.3,3.7-2.5c5.1,1.6,8.9,5.1,12.1,9.1
			c4,4.9,6.1,5.4,11,0.9c4.8-4.4,9.9-8.2,15.9-10.8c2,1.7,2.3-0.3,2.9-1.4c2.4-1.3,4.8-2.6,7.1-3.8c2.8,1,1.3,2.9,0.6,4.2
			c-2.1,4-4.2,7.9-7.6,10.9c-1.1,0.9-2.5,1.7-2.7,3.6c2.7,1.2,5.2,0.2,6.9-1.4c5.9-5.7,13-6.6,20.7-5.9c0.7,0.1,1.3,0,1.9-0.4
			c12-1,22.4-6.4,33-11.2c1.9,2.1,2,2.2,0.5,4.6c-3.7,6.1-8.9,10.6-15.2,13.8c-1.8,0.9-4.1,1.3-5.2,4c5.2,0.4,9.2-1.7,13.2-3.9
			c1.8-1,3.3-2.9,5.8-2.4c12.2-1.8,24.7-1.6,36.8-6.1c-1.1,3.4-4,4.2-5.5,6.3c-2.1,1.4-4.9,2.8-0.1,4.4c5.8,2.3,13.8-0.1,15.7-4.7
			c0.7-0.3,1.4-0.4,2,0.2c1.5,0.8,3.6,0.9,4.3,2.9c-1.2,3.6-4.2,5.5-7.3,7c-7,3.4-14.1,6.5-21.9,8.1c-5.4,1.1-5.7,1.3-3.4,6.5
			c7.6,17.4,11.2,35.8,14.4,54.3c0.3,1.8,0.7,3.6,0.7,5.4c0,1.6-0.2,3.2-2.6,2.2c-18.1-10.1-37.1-18-57.9-20.4
			c-24.6-2.8-48.1,1.1-70.4,11.9c-7.5,3.6-12.9,9.7-17.8,16.3c-2.7-1.1-1.2-3.2-1.1-4.9c0.7-9.1,1.3-18.3,4-27.1
			c0.9,0.8,0.9,1.6,0.5,2c0.4-2.3,0.8-5.2,1.7-7.9c2.8-11.7,6.9-22.9,12.1-33.7C733.3,130.4,735.3,128.1,734.2,125.1z"/>
		<path class="st45" d="M806,238.1c-18.2,0.3-36.4,0.4-54.3-3c-11.3-2.2-22.2-5.7-32-12.1c-3-2-4.3-4.1-2.6-7.7
			c4.9-10.8,11.1-20.1,22.8-24.9c36.4-15,71.8-12.5,106.6,4.8c5.6,2.8,11.3,5.6,16.3,9.5c0.7,3.6-1.6,6.3-3.2,9.1
			c-6,10.4-13.4,19.4-26.2,21.6c-8,1.4-16,2.7-24.1,2.4C808.2,237.7,807,237.4,806,238.1z"/>
		<path class="st45" d="M825.9,320.7c-4.3,0-8.6,0.1-12.8,0.1c-19.3,3.5-36.5-3-53.6-10.5c-2.1-0.9-3.4-2.6-4.1-4.7
			c-3.3-9.2-6.1-18.4-5.4-28.4c0.1-1.2-0.2-2.3-0.9-3.3c-0.3-5.5,1.2-10.7,2.1-15.9c1.1-7.6,4.9-10,12.4-8.2
			c6.5,1.5,13.1,2.6,19.7,2.8c18,0.3,36,0.9,53.8-2.2c7.7-1.3,11.5,1.4,13.6,8.8c3.2,11.2,3.3,22.6,2.4,33.9
			c-0.7,8.3-4.6,15.6-10.2,21.7C838.5,319.5,832.3,320.5,825.9,320.7z"/>
		<path class="st46" d="M825.9,320.7c0.7-1.2,2-1,3.1-1.2c12.9-3.4,21.9-13.6,22.8-26.9c0.8-11.3,0.6-22.7-2.7-33.8
			c-1.9-6.2-5-8-11.2-7.1c-22.2,3.3-44.5,3.9-66.8,0.8c-3.4-0.5-6.8-0.7-10.2-2c-3.8-1.4-7.5,1.8-9.8,7.6c-0.3-1.4,0.9-3.7-1.7-3.9
			c-1.9-0.1-2,1.9-2.4,3.2c-0.8,2.5-1.5,5-2,7.6c-0.4,2,0,4.1-3.7,3.2c-2.4-0.5-1.1,2.2-1,3.7c-3.7-0.9-5-3.6-3.4-7.6
			c1.4-3.7,3.9-6.9,6.5-9.8c1.4-1.6,3-3,4.4-5.1c-2.9-1.4-5.6-2-8.2-2.9c-1.1-0.5-2.3-1-2.7-2.3c1.3-5,4-5.7,9.1-4.4
			c18.6,5,37.9,5,56.9,4.2c20-0.8,40.1-2.1,59.4-8.4c1.6-0.5,3.2-1.2,4.5,0.6c0.2,2.4,1.7,4.2,3.2,6c3.9,4.9,7.4,10.2,10.2,15.8
			c1.4,2.8,1.3,5.4-1.4,7c-3.1,1.8-4.2,6.6-8.9,6c1.1-2.7,3.1-6.1-2.8-4.3c-2.4,0.7-2.2-1.4-2.8-2.5c-2.2-4.1-3.9-8.6-7.9-11.7
			c6.9,26.7,11.7,53.4,9.3,81c-4.5,3-9.1,6.1-14.9,3C843.8,329.4,836.1,323.1,825.9,320.7z"/>
		<path class="st46" d="M861,196.6c2-0.3,1.4-1.6,1.2-2.9c-3.1-21-7.3-41.7-16.1-61.2c-1.7-3.7-0.2-4.8,2.9-5.2
			c7.5-0.9,14.2-4.1,21.2-6.8c4.3-1.6,7.5-4.7,11-7.4c2.3,3.7,1.4,7.3-0.9,10.5c-4.3,5.8-9.9,9.2-17.4,8.6c-2.1-0.2-4.2-0.8-6.4,0.2
			c1.3,2.1,3.1,3.9,5.3,4.3c4.5,0.7,5.4,4,6.9,7.4c6.8,16.1,11.8,32.5,12.3,50.1c0.1,3.9-0.5,7.9-0.7,11.8c-0.1,2.5-1.1,2.7-3.1,1.4
			C871.8,203.8,866.4,200.2,861,196.6z"/>
		<path class="st46" d="M749,273.9c3.9,3.7,2,8.7,2.7,13c1.1,6.7,3.4,13,5.3,19.5c0.5,1.7,1.8,2.4,3.2,2.9
			c11,3.5,21.3,9.2,32.9,10.9c6.6,1,13.3-0.3,19.9,0.5c-2.2,1-4.6,0.8-6.8,0.7c-10.9-0.5-18.5,5-24.7,13c-0.5,0.6-1.1,1.2-1.6,1.8
			c-6.5,2.3-12.9,3-18.7-1.8c1.3-3.9-0.9-7.2-2.6-10.1C749.9,308.5,746.2,291.9,749,273.9z"/>
		<path class="st47" d="M841.1,97.2c0-1.4-0.4-2.9,0.7-4.2c7.1-9.1,7.7-19.5,6.8-30.4c-0.2-2.6-3-6,1.6-7.8c1.4,1.4,3.2,2.1,4.7,3.4
			c2,1.4,3.9,2.7,3.7,5.7c-0.2,4.9,0,4.9,5.1,4.2c1.5,0.4,2.2,1.5,2.9,2.8c0.6,1.2,1.6,2,2.6,3c0.6,1.4,1.3,2.9,1.9,4.3
			c0.5,2.1,0.4,4.4,2,6.2c0.1,0.8,0.1,1.6,0.3,2.4c2,8.4,1.8,8.8-6.3,11.5c-6.5,1.8-13.1,1.7-19.7,1.4
			C845,99.6,842.7,99.3,841.1,97.2z"/>
		<path class="st47" d="M756,52.8c2.7-1.4,5.5-2.6,4.8,2.3c-1.8,11.3-0.3,22.3,2.2,33.3c-4.7,6.2-18.2,10.6-25,8
			c-0.9-0.5-1.5-1.2-1.6-2.2c0.6-3-0.7-6-0.3-9c0.6-5.6,4.4-9.6,7.1-14.2c0.5-0.8,1.6-1,2.6-1.3c7.1-1.6,7.3-2.2,4-8.5
			c0.5-2.3,2.6-3.6,3.8-5.4C754.2,54.6,755.3,53.8,756,52.8z"/>
		<path class="st45" d="M739.9,245.3c3.4,1.1,6.9,2.2,10.6,3.3c-4.1,4.5-8.6,8.6-11.5,14c-1.8,3.3-3,6.7,1.4,9.2
			c3.6,2.7,4.3,6.3,3.3,10.5c-0.6,2.4-0.7,4.9-0.1,7.3c0.8,3.1-0.9,4.6-3.6,5.4c-1.2,0.4-2.6,1.2-3.7,0.1c-0.9-1-0.4-2.2,0.2-3.2
			c1.6-3-0.5-4.5-2.4-6.1c-3.3-4.3-7-8.3-10.2-12.7c-1.1-2.7-1.2-5.5,0.1-8.2c4-5.3,8.4-10.4,12.1-16
			C737,247.4,738.1,246,739.9,245.3z"/>
		<path class="st48" d="M714.1,277.9c0.7-0.3,1.3-0.7,2-1c2.4,4.8,5.4,9.1,9.7,12.4c1,0.8,1.9,1.6,2,3.2c0.3,9.6,1.9,10.9,12.1,10.5
			c0.4,1.5-0.7,2.7-0.6,4.2c0.2,2.3,0.8,4.2,3.7,3.6c0.9,2.3,1.8,4.6,2.7,6.9c-1.7,2.3-4.9,1.6-7.1,3.1c8,5.6,8,5.6,5.2,9.2
			c-4.4,0.8-8.7-1.1-13-0.5c-1.9,1.8,0.9,2,1.1,3.1c-3.6,1.9-6.1-1.1-9.1-1.9c-2.4-1.4-4.8-2.8-7.4-4.3c1.3-2.8,3.3-3.8,6.3-2.7
			c0.6,0.2,1.3,0.4,1.9,0.5c2.5,0.4,5.9,2,7-1.1c1.2-3.5-2.7-3.6-5-4.8c-1.1-0.6-3.4,0.2-3-2.3c0.3-2,1.7-2.6,3.6-2.5
			c2,0.1,4.4,0.2,4.6-2.5c0.3-2.6-1.9-3.2-4-3.4c-2.4-0.1-2.4-1.9-2.5-3.5c-0.5-6.7-3.1-12.3-8.1-16.9
			C713.9,284.7,714.4,281.1,714.1,277.9z"/>
		<path class="st46" d="M806,238.1c4.3-2.1,9.2-1.5,13.6-1.5c21.9-0.3,34.7-12.3,42.8-31c0.1-0.3,0.3-0.6,0.4-0.9
			c4.5,2,8.2,4.9,10.9,9.1c2.1,3.2,1.7,6.2-1.1,8.9c-3.1,3.1-6.8,5.5-10.9,6.9C843.8,235.8,825.1,238.5,806,238.1z"/>
		<path class="st49" d="M870.1,271c3.2-2.7,6.4-5.4,9.6-8.1c1.4-1.2,0.5-2.4,0-3.6c-3.1-6.2-6.7-12.1-11.3-17.3
			c-1.5-1.7-3.7-3.2-1.3-5.8c7,5.7,12.3,12.8,16.8,20.6c2.3,4.1,2.7,8.1,0.8,12.2c-1.5,3.3-3.1,6.6-4.9,9.7c-2,3.5-5.2,6.5-2.8,11.1
			c0.5,1.1,0,2.3-1.5,2.6c-1.3,0.3-2.8-0.1-2.8-1.3C872.6,284.3,869.8,277.9,870.1,271z"/>
		<path class="st50" d="M795.9,105.3c-0.6,0.3-1.2,0.9-1.7,0.8c-8.2-1.4-14.8,1.8-20.7,7c-0.9,0.8-2.4,1.2-3.6,1.6
			c-1.9,0.6-4.2,1.1-5.4-1c-1.3-2.3,1.2-2.9,2.5-4.1c4.4-4.3,8.9-8.6,9.2-15.3c3-2.5,6.1-5,9.9-8.1c0.2,4.6-1,8.1-2.7,11.5
			c-0.7,1.5-1.5,2.9-2.2,4.4c-1.1,2.1-1,3.3,2,3.2C787.3,105.1,791.6,105.3,795.9,105.3z"/>
		<path class="st46" d="M828,110.1c-4.9,3.6-10.1,6.9-16.3,7.8c-1.5,0.2-3.6,1-4.4-1c-1-2.4,1.2-3.1,2.8-3.8
			c7.4-3.2,13.8-7.7,18.1-14.7c0.8-1.2,2.6-2.5,0.7-4.3c2-1,4-2,5.9-3c2.4,0.4,1.5,2,1.3,3.3c-0.6,4.2-2.9,7.5-5.8,10.5
			C829,106.2,826.6,107.4,828,110.1z"/>
		<path class="st51" d="M737.9,96.3c9.2,0,17.4-3,25-8c3.5,3.5,1.9,6-1.6,8.3c-3.7,2.4-7.6,4.4-10.8,7.8c-1.8,1.9-4.7,3.2-6.9-0.5
			C742,101.1,737.7,100.5,737.9,96.3z"/>
		<path class="st52" d="M713,98.4c-0.4,5.2,2,9.1,6,12.1c3.7,2.7,7.3,5.6,11.5,7.4c2.3,1,3.8,2.5,3.4,5.3
			c-9.8-1.5-17.1-6.9-22.7-14.6C707.9,104,708.6,101.5,713,98.4z"/>
		<path class="st53" d="M750.2,60.8c1.4,1.8,4.4,3,3,6c-1.3,2.9-3.5,4.8-7.1,3.7c-1-0.3-2,0-2.5,1c-2.2,4.3-5.2,8.2-6.5,13
			c-2.9-1.1-1.2-3.3-1.2-5c2.1-8.1,6-15.1,13-20C750,59.3,750.4,59.7,750.2,60.8z"/>
		<path class="st54" d="M761.2,334.5c6.1,2.5,12.4,2.2,18.7,1.8c-3.4,5.5-8.9,7.7-14.8,8.9c-4.8,1-7.3-1.9-5.9-6.7
			C759.7,337.1,760.6,335.8,761.2,334.5z"/>
		<path class="st55" d="M734.2,125.1c3.6,1.2,1.5,3.5,0.7,5.1c-5.9,11-9.5,22.9-13.7,34.6c-0.2,0.6-0.1,1.3-0.2,1.9
			c-2.5-0.4-1.2-2.1-1.1-3.3C722.6,149.9,726.5,136.8,734.2,125.1z"/>
		<path class="st56" d="M851,336.5c5.4,1.4,9.8-2.5,14.9-3c1.3,2.3,4.2,4.1,2.4,7.3c-1.8,3.2-5,2.8-7.8,2.7
			C854.6,343.4,851.9,341.3,851,336.5z"/>
		<path class="st57" d="M841.1,97.2c8.6,2,17.3,0.7,25.9,1.1c-8.8,4.2-18.3,5.4-28.3,6.1C839,101.5,840.1,99.4,841.1,97.2z"/>
		<path class="st58" d="M744,329.4c2.6-4.3-1-4.8-3.6-6c-1.4-0.7-4.2,0.1-3.7-2.7c0.4-2.3,2.5-2.1,4.3-2.3c1.6-0.1,3.2-0.5,4.8-0.8
			c2.1,4,4.2,7.9,6.3,11.9c-2.5,2.1-5.4,0.6-8,1c-0.4-0.2-0.5-0.5-0.4-0.7C743.7,329.6,743.9,329.4,744,329.4z"/>
		<path class="st59" d="M739.9,245.3c-4.2,6.9-9.4,13-14.3,19.4c-0.5,0.6-1,0.9-1.6,0.2c3.2-7.7,8.3-14.1,13-20.8
			C737.9,244.6,738.9,244.9,739.9,245.3z"/>
		<path class="st60" d="M863.9,68.6c-1.9,0.3-3.5,3.1-5.8,1.1c-1.9-1.7-1.3-3.8-0.7-5.9c0.9-3.1-2.4-3.4-3.5-5.3
			c0-1.6,0.7-1.8,1.9-1c3.8,2.5,7,5.6,9.3,9.6C865.5,68.4,865,68.8,863.9,68.6z"/>
		<path class="st61" d="M859,115.2c-1.8-0.3-4.6,0.6-4.5-2.2c0.1-2.4,2.4-3.1,4.8-2.7c1.4,2.4,3.3,1.4,5.2,0.7
			c4-1.4,8.1-3.3,12.4-0.8c-0.6,0-1.3,0-1.9,0.1c-3.4,2.1-6.8,4.1-10.7,5.1C862.6,115.8,860.7,116.6,859,115.2z"/>
		<path class="st62" d="M723.8,273.2c0.5-0.6,1.1-0.8,1.5-0.1c2.6,3.7,5.3,7.3,8.6,10.4c0.8,0.7,1.1,1.6,0,2.4
			C729,283,724.8,279.3,723.8,273.2z"/>
		<path class="st63" d="M743.1,310.7c-0.7,2.7-3,2.6-3.8,0.9c-1.3-2.7-3-6,0.6-8.7C743,304.7,741.8,308.2,743.1,310.7z"/>
		<path class="st64" d="M727,100.2c-0.2,1.3,1.4,3-0.8,3.7c-1.7,0.5-3.6,0.8-5.1-0.4c-1.9-1.6-0.9-3.5-0.1-5.3
			C722.8,99.4,725.4,98.4,727,100.2z"/>
		<path class="st65" d="M735.8,79.5c0.9,1.6-1,3.8,1.2,5c-0.3,3.2,0.6,6.5-0.7,9.6C735.3,89.3,733.7,84.4,735.8,79.5z"/>
		<path class="st66" d="M719.9,163.4c0.3,1.1-0.1,2.5,1.1,3.3c-0.8,2.7-1.6,5.3-2.6,8.8c-0.3-1.6-0.5-2.4-0.6-3.1
			C717.7,169.2,718.5,166.3,719.9,163.4z"/>
		<path class="st67" d="M768.9,98.1c0.7,1.6,1.6,3.3-0.9,3.9c-2,0.5-1.9-1.2-2-2.5C766.8,98.5,767.7,97.9,768.9,98.1z"/>
		<path class="st68" d="M750.2,60.8c-0.4-0.4-0.9-0.9-1.3-1.3c1.4-1.6,2.8-3.2,4.2-4.8c1-0.3,1.2,0.1,1.1,1
			C752.9,57.4,751.5,59.1,750.2,60.8z"/>
		<path class="st69" d="M855.9,57.6c-0.8,0.1-1.5,0.1-1.9,1c-1.5-1-3.6-1.5-3.8-3.9C852.7,54.5,854.3,56.1,855.9,57.6z"/>
		<path class="st70" d="M713.8,199.5c0.9,1.5-0.7,3.6,1.1,4.9c-0.4,0.7-0.6,1.9-1.1,2c-1.3,0.2-0.9-1-0.9-1.7
			C713.1,203,712.7,201.1,713.8,199.5z"/>
		<path class="st71" d="M873,84.3c-3.3-1.2-2.4-3.8-2-6.2C872.4,80,873,82.1,873,84.3z"/>
		<path class="st72" d="M863.9,68.6c0.4-0.5,0.9-0.9,1.3-1.4c1.1,0.7,1.7,1.7,2,2.9c0.4,1.1-0.1,1.4-1.1,1.3
			C865.3,70.5,864.6,69.5,863.9,68.6z"/>
		<path class="st73" d="M836.1,94.4c-0.3-1.1,0.1-2.5-1.3-3.3c0.6-0.6,1.4-1,1.8-0.1C837.3,92.2,837.1,93.4,836.1,94.4z"/>
		<path class="st74" d="M754.2,55.7c-0.4-0.3-0.7-0.7-1.1-1c0.6-1.2,1.8-1.5,2.9-1.9C756,54.1,755.4,55,754.2,55.7z"/>
		<path class="st75" d="M866.1,71.4c0.4-0.4,0.7-0.8,1.1-1.3c1.1,1,1.7,2.3,1.9,3.7C867.6,73.7,866.5,72.9,866.1,71.4z"/>
		<path class="st76" d="M353.2,279.8c-0.6-0.6-1.1-1.2-1.7-1.8c-0.7-0.8-1.2-1.6-0.3-2.5c0.8-0.7,1.5-0.1,2.2,0.3
			c3.8,2,7.5,4.4,11.5,5.9c27.8,9.8,56.1,10.8,84.4,2.7c9.9-2.8,18.2-4,28.8,0.1c16.4,6.3,34.2,6.5,51.5,1.1
			c1.3-0.4,2.6-0.6,3.9-0.9c0.6-0.1,1.3,0,2,0.1c-0.3,3-2.6,3.9-4.6,4.8c-7.9,3.7-16.4,4.5-24.9,4c-13.5-0.7-27-1.3-39-8.7
			c-2.1-1.3-3.9,0-5.7,0.6c-18.4,6.4-37.4,9.5-56.9,8.4c-14.2-0.8-28-3.7-41.4-8.2C359.8,283.7,356.5,281.7,353.2,279.8z"/>
		<path class="st77" d="M331,277.9c-1.5-7.3-3.6-14.3-8.4-20.2c-0.9-1.2-1.5-2.5,0-3.4c5.6-3.2,6.1-9.1,8-14.3
			c0.3-0.7,0.2-1.7,1.6-2.1c1.8,3.5,2.9,7.9,5.7,10.3c5.6,4.8,5.7,9.1,2.3,15.3c-2.2,3.9-2.3,8.8-3.4,13.3c-1.3,1.6-0.6,3.7-1.2,5.4
			c-0.7,1.8-1.4,1.4-1.7-0.3c-0.6-1.4-0.6-3.1-2.2-4C331.5,278,331.3,278,331,277.9z"/>
		<path class="st78" d="M574.3,283.7c-0.5-1-2-1.6-1.5-2.9c0.5-1.4,1.6-0.5,2.5-0.3c26.3,6,49.7,0,70.7-16.3
			c0.2-0.2,0.6-0.2,0.9-0.4c-4.2,4.8-7.5,10.5-13,14.2c-14.1,7-28.8,10.5-44.6,9.1C584.1,286.5,579.2,285.3,574.3,283.7z"/>
		<path class="st79" d="M543,280.9c-0.1-0.8,0.1-1.9-0.3-2.3c-5-5.5-1.7-11.4-0.8-17.2c0.2-1.1,0.6-1.9,1.8-2c1.1-0.1,2,0.5,2.5,1.4
			c1.8,3.3,3.5,6.7,6.1,9.6c0.4,0.4,0.6,1.4,0.4,1.8c-3.4,5.1-3,11-3.8,16.6c-0.4,2.9-1.7,3.2-3.6,0.9
			C546,286.3,543.2,283.9,543,280.9z"/>
		<path class="st80" d="M560.1,279.1c2.8-4.9,3.2,0.7,4.8,1.1c2.5,3.3,3.2,6.6,1.8,10.9c-1.5,4.6-1.8,9.6-2.7,14.8
			c-2.3-2-2.4-4.2-2.8-6.3c-0.7-4-1.1-8.2-3.8-11.6c-1.1-1.4-0.4-2.3,0.4-3.5C559,282.9,560.1,281.3,560.1,279.1z"/>
		<path class="st81" d="M622.9,321.7c2.4,1.9,4.8,3.8,7.1,5.7c-1.1,0.1-2.3,0.1-3.4,0.5c-2.1,0.7-4.3,1.3-5.8-0.9
			C619.2,324.4,621.6,323.2,622.9,321.7z"/>
		<path class="st82" d="M331.7,278c2.2,0.5,2.5,2.1,2.2,4C333.2,280.7,332.5,279.4,331.7,278z"/>
		<path class="st22" d="M707.9,317.7c1.8,2.5,1.8,4.3-1.5,5.9c-6.3,3.1-13,4.7-19.9,6.1c-1.8,0.3-3.5,0.7-5.6,1.2
			c2.2,3,5.4,1.9,7.9,2.9c3.2,4.5,0.6,8.6-1.5,12.2c-2.1,3.6-5.9,2.1-9.2,1.4c-0.6-1.5-0.9-3.7-2.9-3.3c-2,0.4-0.9,2.5-1.1,3.8
			c-0.1,0.7-0.1,1.3-0.9,1.5c-1.3-0.9-2.8-1.3-4.2-1.9c-1.5-0.4-3-0.9-2.9-2.7c0.2-2.5-1.7-3.2-3.2-3.3c-2.5-0.2-2.9-1.5-2.9-3.5
			c0-0.8,0.8-2.1-0.7-2.4c-1.4-0.3-1.3,1.2-1.8,1.8c-0.6,0.9-1.1,1.9-1.7,2.9c-4.5-1.9-4.8-4-1.1-6.9c-5.2-2.3-10.5-4.5-15.7-6.9
			c-6.7-3.2-13-6.7-15-14.7c2.5-1.3,5.2-0.7,7.8-0.5c4.6,0.4,8.9-1.2,13.3-1.8c6.4,1,10.1-2.2,12.3-7.7c8.2-7.1,8.2-7.1,16,0.7
			c1.3,1.3,2.8,2.3,4.1,3.6c2.1,2.3,4.4,4.2,7.5,5.1C692.4,313.8,700.4,315,707.9,317.7z"/>
		<path class="st83" d="M676.9,306.8c-3.7-2.1-6.3-5.4-8.7-8.7c-1.6-2.1-2.6-2.5-4.5-0.4c-1.5,1.7-3,3.6-5.4,4.2
			c-1.9-1.5-1.5-3.9-2.3-5.8c-2-5.5-7.1-6.6-11.3-2.4c-4.1,4.1-4.3,9.4-0.6,13.7c0.8,1,2.2,1.6,2,3.2c-7.2,2.1-14.6,2.7-22,1.2
			c0.1-1.4,1.4-1.1,2.2-1.5c1-0.5,2.4-0.8,2-2.3c-0.3-1.1-1.5-1.1-2.5-1.1c-1.1,0-2.8,1.1-2.8-1.3c0-1.6,0.4-3,2.1-3.5
			c0.6-0.2,1.3-0.2,2-0.3c2.1-0.5,4.8-0.9,4.8-3.5c0-2.5-3.2-0.6-4.6-2.3c2.7-4.4,6.7-7.6,10.9-10.3c2.5-1.6,2.6-2.8,0.9-4.8
			c1.3-0.9,2.7-1.2,4.3-0.8c5.2,1.3,9.8-1.4,11.9-7c0.3-0.9,0.7-1.7,1-2.6c0.7-1.5,0.4-3.4,1.7-4.7c0.7-0.3,1.5-0.3,2.1,0.2
			l-0.1,0.3c1,2.5,0.8,5,0.1,7.6c-1.3,0.7-0.8,2.1-1.1,3.1c-1.7,1.3-1.2,3.5-1.8,5.2c0.5,2.7-1.9,7.1,1.8,7.7
			c4.2,0.8,2.8-4.2,3.9-6.6c0.6-1.2,0.6-2.8,2.4-2.5c2.3,0.4,0.8,2.1,0.8,3.2c0,1.9,0.1,4,2.3,4.4c2.6,0.5,2.5-2.1,3.2-3.6
			c0.3-0.8,0.4-1.6,0.5-2.4c0.2-1,0.6-2,1.8-2c1.4,0,1.2,1.3,1.2,2.2c0.2,2.7-1.1,6.6,2.8,6.8c3.9,0.3,3.2-4,3.7-6.5
			c0.5-2.8,1.5-4.9,4.3-5.9c2.2,1.3,4.9-0.4,7.1,1l0,0c2.5,1,5,1.9,7.5,2.9c1.2,0.3,1.7-0.5,2.2-1.3c0.7-0.9,1.4-1.7,2.5-2.1
			c0.7-0.2,1.4-0.1,1.9,0.5c-0.1,3.4,3.5,6.8-1.4,10.3c-2.5,1.8,0.9,3.2,3,3.6c3,0.6,6.9,0,7.9,5c-2.4,0-4.5-0.1-6.6,0
			c-1.4,0.1-2.7,0.7-2.8,2.3c0,1.5,1.1,2.4,2.5,2.6c1.3,0.2,2.6,0.1,4,0.2c1.9,0.1,4.6-1.2,4.8,2.4c0.2,3.3-2.1,3.5-4.5,3.9
			c-2,0.3-3.9,0.8-5.8,1.2c-2.3,0.5-3.4,1.8-3.2,4.2c0.2,1.9,3.6,0.8,3.2,3.3c0.1,0.3,0,0.6-0.3,0.8c-8.5,0-16.2-3.2-24-5.9
			c3.1-2.1,6.8-3.3,8-7.6c0.6-2.3,1.2-4.5,0.6-6.8c-0.7-2.9-2.4-5.2-5.4-6c-2.8-0.8-4.7,1.1-6.4,3c-2.2,2.5-3.3,5.3-3.2,8.6
			C677.5,304.3,678.1,305.7,676.9,306.8z"/>
		<path class="st83" d="M678.1,347.3c8.8,0.2,11.3-3.1,10.7-13.6c6.7,1.4,13.1,0.3,19-3.1c3-1.7,4.8,0.3,7.4,1.7
			c-1.7,1.3-3,2.2-4.2,3.2c-0.6,0.5-1.7,0.9-1.1,1.8c0.7,1.1,1.9,1,2.9,0.2c2.2-0.6,4.4-4.8,6.5-1.7c1.6,2.5-2.6,3.3-4.2,4.9
			c-1.8,1.8-4.6,2.5-6.1,4.8c-2.6-0.3-3.1-2.5-4.1-4.3c-0.7-3.9-3.2-5.1-6.4-2.7c-3.3,2.5-4.5,6-4.5,10c0,4.4-0.1,8.8-1.9,13
			c-3.4-2.4-7.2-2-11-2c-0.9-3.6,0.5-5.5,4.2-6c1.6-0.2,3.7-0.6,3.6-2.6c-0.1-2.2-2.4-2-4.1-2.5
			C682.6,347.6,679.9,349.9,678.1,347.3z"/>
		<path class="st84" d="M704.8,341.2c2.9,0,2.3,3.2,4.1,4.3c0,0,0,0,0,0c2.6,4.1,6.9,7,8.2,12c-0.1,0.8-0.7,1.7-0.4,2.4
			c2.7,6-1.6,7.6-5.9,9.2c-1.7,1.3-3.5,0.8-5.3,0.3c-1.3-0.5-2-2-3.4-2.5c-0.7,0-1.4,0.3-2.2,0.3c-1.5-1.7-1.7-4.1-0.5-5.3
			c3.5-3.5,1.6-6.8,0.8-10.6C699.4,347.1,699.8,342.9,704.8,341.2z"/>
		<path class="st85" d="M681.1,359.4c4.2-2.1,8.1-2.8,11,2c-0.7,2.6-0.9,5.3-2.3,7.7c-0.3,0.5-0.9,0.8-1.2,0.5
			c-1.5-1.7-2.6-2.1-3.5,0.5c-0.3,0.8-1.4,0.7-2.1,0.1c-0.7-1.4-1.3-2.9-2.4-5.1c-0.5,1.4-0.6,1.9-0.8,2.5c-0.4,1,0.2,3.1-2.2,2
			c-1.8-0.8-2-2-0.9-3.6C678.2,363.8,679.7,361.6,681.1,359.4z"/>
		<path class="st86" d="M663.8,364.2c1.7-2.9,0.8-6.5,2.9-9.2c0.9-1.2-0.2-2.4-1.6-2.8c0.1-2.2,1.8-1,2.8-1.3c1.8-0.2,3.3,1,5.1,1.3
			c0.8,0.5,2.1,0.9,2.4,1.6c0.8,1.8,1.4,5,0.1,5.4c-4.2,1.6-2.5,9-8.6,8.1C666.8,365.4,665.2,364.9,663.8,364.2z"/>
		<path class="st87" d="M717.1,357.4c-2.7-4-7.4-6.6-8.2-12c4.3,2.4,7.4-1.1,11.1-2.1c1.2-0.3,2.4-2.8,3.6-0.5
			c1.2,2.3-0.5,3.2-2.5,3.7c-0.5,0.1-1,0.3-1.4,0.5c-1.1,0.5-3.1,0.3-2.6,2.2c0.4,1.5,2,1.9,3.5,2.1c1.1,0.2,2.6-1.9,3.3,0.2
			c0.5,1.3,0.5,3-1.3,3.8c-2,0.9-0.6,2.6-0.9,4C720,359.3,719.6,355.5,717.1,357.4z"/>
		<path class="st88" d="M705.2,277.8c-0.2,1.2-1.2,1.6-2,2.2c-1.3,0-0.4,2.6-2.3,2c-3.4,0.1-5.3-2.8-8-4c1.5-0.3,2.8,0.3,4.1,0.9
			c0.7-1.1,2.5-0.6,2.9-2c-0.9-1.5-1.2,0.2-1.8,0.3c-0.4,0.2-0.8,0.1-1.1-0.2c0-1.2,0.1-2.4-1.3-3.1c-1.3-3.4,0.5-6.2,2.1-8.9
			c1.2-1.1,2.6-2,4.1-2.8c1.8-2,2.9,0,4.1,0.8c-0.1,0.2-0.1,0.4-0.2,0.7c-0.6,1.4-1.7,2.3-2.7,3.3c-1.7,1.9-1.3,3.4,0.9,4.5
			C706.4,273.3,705,275.7,705.2,277.8z"/>
		<path class="st89" d="M643.9,280.8c-1.6,0-3.2,0-4.9,0c4.5-6.7,9.1-13.4,16.9-16.8c2,2.7,0.3,5.2-0.4,7.7c-2.8,1.5-5.6,2.9-7,6.1
			C647.9,279.6,646.2,281,643.9,280.8z"/>
		<path class="st90" d="M652.1,260.1c-0.2-1.2-1.4-1.2-2.1-1.8c-2.5-2-4.3-4.4-2.1-7.5c1.7-2.4,4.3-3.2,7-1.6c3.4,2,3.2,4.9,1.1,7.8
			C655.7,259.4,653.9,259.7,652.1,260.1z"/>
		<path class="st91" d="M654.8,333.3c-2.4,2.7-2.2,5.1,1.1,6.9c0.2,2.1,1.4,3.3,3.5,3.4c4.4,0.2,5.2,3,4.7,6.6
			c-0.8,0.7-1.6,0.7-2.3-0.1c0.3-3.9-2.4-3.9-5.2-3.9c-2.9,0-6.2-4.7-6.7-8.9C649.5,333.4,652.6,334,654.8,333.3z"/>
		<path class="st92" d="M698.9,264.9c-1.6,2.8-2.4,5.8-3.2,8.9c-2.6,3.8-5.3,1.7-8.5,0c3.2-3.9,6.2-7.6,10.6-10
			C698.8,263.6,699.1,264,698.9,264.9z"/>
		<path class="st93" d="M722.9,330.6c3.4-1.2,5.9,2,9.1,1.9c0.4,0.3,0.7,0.6,1.1,0.9c-0.1,2.8-3.9,4.1-3.2,7.3
			C728,337,725.7,333.6,722.9,330.6z"/>
		<path class="st94" d="M731.3,350.3c1.7,3.7,2.2,6.6,0.5,9.6c-0.5,0.9-1.4,1.6-2.4,1.2c-1.4-0.6-0.3-1.6-0.1-2.4
			C729.8,356.2,730.5,353.7,731.3,350.3z"/>
		<path class="st95" d="M646.1,361.1c-1.8,0.2-3-0.2-3-1.9c0-1.9,1.6-2.3,3-2.7c1.9-0.6,2.2,1.1,2.5,2.2
			C649.1,361,647.1,360.9,646.1,361.1z"/>
		<path class="st96" d="M683,370.2c3.7-0.2,0.5-4.7,3.6-5.3c2.3,0.3-0.3,4.6,3.2,4.2C687.7,370.5,685.6,371.6,683,370.2z"/>
		<path class="st97" d="M654.8,271.9c0.4-2.6,0.8-5.2,1.2-7.8c1.6,0.1,3.7-0.8,4.1,1.9c-0.7,0.1-1.3,0.1-2,0.2
			c-1.3,1.4,0.1,3.3-0.9,4.8c-0.4,0.7-0.7,1.3-1.1,2C655.4,272.8,655,272.5,654.8,271.9z"/>
		<path class="st98" d="M705.2,277.8c-2.9-1.5,1.5-4.4-1.2-5.9c0.6-0.5,1.2-0.6,1.9-0.3c0.7,0.7,0.4,1.8,1,2.5c0,1.2,0,2.5,0.1,3.7
			C706.4,277.9,705.8,277.8,705.2,277.8z"/>
		<path class="st99" d="M649.5,355.3c3,0.5,3.2,2.3,3.4,4c0,0.2-0.7,0.7-1,0.6C649.6,359.4,650.1,357.3,649.5,355.3z"/>
		<path class="st100" d="M661.8,350.1c0.8,0,1.5,0.1,2.3,0.1c1.3,0,2.6,0.1,3.8,0.1c0.3,0.1,0.4,0.3,0.4,0.5c0,0.2,0,0.3-0.1,0.3
			c-1,0.3-2.1,0.7-3.1,1c-1.4,0.2-2.7,0.3-4.1,0.5c-0.8-0.5-1.4-1.1-0.8-2.2C660.7,350.4,661.3,350.3,661.8,350.1z"/>
		<path class="st95" d="M708.2,316.9c-0.6-1.5-3.4-1-3.2-3.3c2.9,2.3,6.3,0.2,9.6,1.3C712.6,316.4,709.8,314.8,708.2,316.9z"/>
		<path class="st101" d="M713.3,371.3c-3.8,1.7-7.6,1.5-11.4-0.1C705.7,371.3,709.5,371.3,713.3,371.3z"/>
		<path class="st88" d="M706.9,274.1c-0.3-0.7-0.6-1.5-1-2.2c-2.1-2.8-1.5-5.7-0.2-8.6c0.1-0.1,0.2-0.2,0.4-0.4
			C707.9,266.6,706.7,270.4,706.9,274.1z"/>
		<path class="st102" d="M663.8,364.2c2.6-0.5,3.6,0.6,3.1,3.1c-1.3,0.4-0.7-1.7-2.1-1.4C663.1,366.3,663,366.2,663.8,364.2z"/>
		<path class="st101" d="M705,368.2c1.8,1.1,3.8,1.3,5.9,0.7c-2.2,2.2-4.5,1.8-6.9,0.2C703.9,368.3,704,367.8,705,368.2z"/>
		<path class="st103" d="M697,276.9c0.3,0,0.6,0,0.8,0c1.1-0.2,2.3,0,3.4,0c1.6,0.5,2.1,1.4,0.2,1.9c-1.4,0.4-2.9,0.1-4.4,0.1
			C697,278.2,697,277.6,697,276.9z"/>
		<path class="st104" d="M712.7,337.4c-1.3,1.5-3,1.7-3.9,0.1c-0.8-1.6,0.7-2,2.1-2C709.9,337.6,711.4,337.5,712.7,337.4z"/>
		<path class="st105" d="M700,367.1c0.3-1.1,1.2-1.4,2-1.8c0.9,1.2,1.5,2.4,0.8,3.9C701.6,368.9,700,369.2,700,367.1z"/>
		<path class="st106" d="M660,273.8c0-2.5,0-5.1-0.1-7.6C661.6,268.7,661.6,271.2,660,273.8z"/>
		<path class="st107" d="M702.9,369.1c-0.3-1.3-0.5-2.6-0.8-3.9c2.5-0.6,2.2,1.8,3,2.9c-0.3,0.3-0.7,0.6-1,0.9
			C703.6,369.1,703.2,369.1,702.9,369.1z"/>
		<path class="st108" d="M698.9,264.9c-0.4-0.4-0.8-0.7-1.1-1.1c0.5-2.6,2.7-1.4,4.2-1.7C701.2,263.3,700.3,264.4,698.9,264.9z"/>
		<path class="st88" d="M693,278c-2.4-0.1-4.9,0.3-7.1-1C688.3,277.2,690.9,275.9,693,278z"/>
		<path class="st106" d="M657.1,282.1c-0.1-2-1.4-4.4,1.8-5.2C658.7,278.8,658.1,280.5,657.1,282.1z"/>
		<path class="st109" d="M660.2,350.5c0.3,0.7,0.5,1.4,0.8,2.2c-1.4,1.3-2.1,0.1-2.4-0.8C658,350.4,659.2,350.4,660.2,350.5z"/>
		<path class="st110" d="M668.2,351.2c0-0.3-0.1-0.5-0.3-0.8c2-0.2,3.7,0.3,5,1.8C671.4,351.8,669.8,351.5,668.2,351.2z"/>
		<path class="st110" d="M669,347.4c1.7-0.1,3.3,0.1,4.2,1.9C671.5,349.3,670.1,348.7,669,347.4z"/>
		<path class="st111" d="M744,329.4c0,0.4,0,0.7,0,1.1c-4.4-0.6-8.9,1.3-13.1-1.1c1.1-1.9,2.5-1.5,4.3-1.1
			C738,329.1,740.9,329.9,744,329.4z"/>
		<path class="st112" d="M391.1,228.3c5.5,3.4,10.5,4.6,15.2,6.2c1.9,0.6,4.8,0.8,3.7,4c-1,2.9-3.6,1.8-5.6,1.3
			c-6.9-1.9-13.6-4.3-19.8-7.9c-2.7-1.6-4.3-1.2-6.3,0.7c-3.9,3.6-8.3,6.6-13.4,8.3c-1.8,0.6-4.4,1.9-5.5-1.1
			c-0.9-2.6,1.4-3.2,3.2-4.1c3.9-1.9,8.1-3.5,12-7.5c-5.7,0-10.4,0-15.2,0c-1.7,0-4.1,0.5-4.3-2.1c-0.2-2.7,1.9-3.6,4.3-3.6
			c5.7,0,11.3-0.1,17,0c2.2,0,4-0.2,4.1-3.3c-3.4,0-6.9-0.2-10.4,0.1c-2.8,0.2-4.5-0.8-4.8-3.6c-0.5-5.3-1-10.5-1.5-15.8
			c-0.3-2.6,1-3.5,3.5-3.5c10.8,0.1,21.6,0.2,32.5,0.3c2.9,0,4.8,1.2,4.4,4.5c-0.6,4.6-1,9.2-1.6,13.7c-0.4,2.9-2,4.3-5.1,4.1
			c-2.5-0.2-5,0-7.5-0.1c-1.8-0.1-3.6,0.1-3.4,2.4c0.2,1.9,2,1.1,3.1,1.1c5.3,0.1,10.7,0,16,0.1c2,0,4.3,0,4.4,2.8
			c0.1,3.3-2.4,2.9-4.5,2.9C401.3,228.3,396.9,228.3,391.1,228.3z"/>
		<path class="st112" d="M453.1,209.5c7.4,0,13.6,0,19.9,0c9,0,9,0,9,8.7c0,5.1-0.2,10.3-0.1,15.4c0.1,2.7-0.8,3.8-3.7,3.7
			c-7.7-0.2-15.3-0.2-23,0c-3.1,0.1-3.9-1-4.2-4c-0.6-6.1-0.9-12.2-0.9-18.7c-2.7,0.5-4,2.7-5.7,4.3c-4,3.9-7.9,8.1-11.9,12
			c-1.6,1.6-3.9,2.7-5.7,0.6c-1.7-2,0-3.5,1.5-5c5.5-5.5,10.9-11.1,16.6-16.9c-1.7-1.1-3.5-2.4-5.4-3.6c-1.7-1.1-2.2-2.5-1.1-4.2
			c0.9-1.5,2.4-1.6,3.9-0.7c0.1,0.1,0.3,0.2,0.4,0.2c2.6,0.6,4.1,4.7,7,3.1c2.1-1.2,3.4-4,5-6.1c2.5-3.2,5.3-6.2,6.7-10.8
			c-5.4,0-10.4,0.1-15.3,0c-1.7,0-2.2,1-3,2.1c-1.9,2.9-3.9,5.7-5.9,8.6c-1.2,1.7-2.7,3.2-4.9,1.6c-2.3-1.6-0.7-3.1,0.2-4.7
			c0.8-1.3,1.9-2.4,2.3-3.8c2.5-8.8,8.6-10.9,17-9.7c4.3,0.6,8.6,0.2,13,0.3c4.8,0.1,5.4,1.3,3.5,5.8c-2.3,5.4-6.1,9.8-9.6,14.4
			C456.9,204.2,455.3,206.4,453.1,209.5z"/>
		<path class="st3" d="M620,200.4c4.4,0.9,6.5,4,6.7,8.1c0.6,8.9,1.3,17.7,1.2,26.7c0,3-1.1,3.5-3.8,3.5c-9.1-0.1-18.3,0.1-27.3,1.5
			c-3.7,0.6-4.8-1-4.7-4.1c0.3-8.1,0.7-16.1,0.9-24.2c0-1.1,1.6-3.1-1.2-3.4c-2-5.4-0.2-7.3,7.4-8.3c1.9-0.1,3.9,0.1,5.8-0.6
			c0.8-0.2,1.7-0.3,2.6-0.4C611.9,199.3,616.1,198.3,620,200.4z"/>
		<path class="st112" d="M605,200.7c-1.6,1.4-3.5,0.6-5.3,0.7c-1-1.1-1.3-2.6-1.7-4c-0.6-1.6-1.6-2.4-3.3-2.3
			c-1.9,0.2-2.9,1.3-3.2,3.1c-0.5,3.4,0.3,6.8-0.3,10.2c-1,5.9-0.2,11.8-0.5,17.7c-0.1,2.6-0.5,4.5-4.2,4.3c-3.6-0.3-7.4,0.1-10.8,1
			c-3.8,1-4.7,0.1-4.9-3.7c-0.4-9.7,0.2-19.4,0.5-29.1c0.1-2.1,1.2-4-1-6.1c-1.1-1.1-0.2-3.8,1.6-5.2c4.1-3,13.7-2.1,17,1.9
			c0.7,0.8,1.1,1.2,1.6,0.3c1.3-2,6-0.4,5.3-3c-1-4,1.5-4.2,3.6-4.8c3.2-0.8,2.9,2.4,4,4c0.2,0.3,0.4,0.5,0.7,0.7
			c1.6,1.6,5-0.8,5.8,2.6c0.2,0.7,0.1,1.5-0.1,2.2C607.6,194.1,606.9,197.7,605,200.7z"/>
		<path class="st38" d="M507.6,188.6c2.8,0,5.7,0.1,8.5,0c2-0.1,3.4,0.8,3.5,2.7c0.1,1.9-1,3.5-3.4,3.3c-0.2,0-0.3,0-0.5,0
			c-1.9,0.3-4.9-1-5.5,0.7c-0.9,2.5-0.4,5.5-0.1,8.3c0.2,2,2.1,0.9,3.3,1.2c1.8,0.5,4.4,0.4,4.2,3.1c-0.1,2.1-2.1,2.9-4.1,2.6
			c-2.9-0.4-3.4,1.1-3.1,3.5c0.2,1.3,0.4,2.6,0.2,3.9c-0.5,4.8,0,8.2,6.3,5.8c1.5-0.6,3.1,0.3,3.4,2c0.3,1.7-0.6,2.9-2.3,3.2
			c-6.5,1.2-13,2.3-19.5,3.3c-1.6,0.3-3-0.3-3.4-2.1c-0.6-2.2,1-2.9,2.6-3.5c2.3-0.9,5.9,0.4,6.9-2.4c0.8-2.3,0.1-5.2,0-7.8
			c-0.2-3.2,0.9-7.6-5.2-5.6c-1.3,0.4-2.7-0.7-2.9-2.1c-0.2-1.8,0.7-2.9,2.8-3.3c2.4-0.5,5.4-0.3,4.9-4.7c-0.4-3.9-0.1-7.2-5.6-6.1
			c-1.8,0.4-2.9-0.8-2.9-2.5c-0.1-1.9,0.9-3.2,2.9-3.3C501.6,188.5,504.6,188.6,507.6,188.6C507.6,188.6,507.6,188.6,507.6,188.6z"
			/>
		<path class="st38" d="M543.1,186.4c3.2,0.1,6.3,0.2,9.5,0.4c2.1,0.1,5,0,4.9,2.8c0,3.2-3,2.9-5.3,2.9c-0.8,0-1.7,0-2.9,0
			c1.3,2.8,3.7,4.3,5.4,6.3c1.6,1.8,3.6,3.6,1.1,5.8c-2.3,2.1-3.5-0.5-4.8-1.7c-3-2.7-5.9-5.3-8.5-8.3c-2-2.3-3.2-2.8-5.1,0.1
			c-2.6,4-6,7.4-10.1,10.1c-1.9,1.3-4.1,2.3-5.7,0c-1.6-2.4,0.6-3.5,2.2-4.6c2.9-2.1,5.9-4.1,8.2-8c-2.8,0-5,0.1-7.3,0
			c-1.7-0.1-2.8-0.9-2.8-2.8c0-1.9,1.1-2.7,2.8-2.8c1.3-0.1,2.7-0.1,4-0.1c4.2,0.2,8.3,0.8,9.8-4.8c0.4-1.7,2.4-2.5,4.1-1.6
			C545.7,181.8,543.2,184.2,543.1,186.4z"/>
		<path class="st76" d="M410.5,186c-0.4,1.6-1.2,2.7-3.1,2.6c-2.3-0.1-4.7,0.1-7-0.1c-3.4-0.3-6.3-0.1-6.4,4.3c0,1.6-1.4,2-2.4,2
			c-1.3,0-2.7-0.7-2.7-2.3c-0.1-5.7-4.4-2.7-6.8-3.2c-2.2-0.5-4.4-0.3-4,3.1c0.1,1.2-0.8,2.1-2.2,2.1c-1.5,0-2.7-0.5-3-2
			c-0.5-3.5-2.8-3.3-5.5-3.1c-2.8,0.3-5.7,0.1-8.5,0.1c-2,0-3.9-0.5-3.8-2.8c0-2.4,2.1-2.1,3.7-2.1c2.5,0,5,0,7.5,0
			c2.3,0,4.6,0.8,4.9-3.2c0.3-2.8,3.5-2.7,4.6-0.2c1.9,4.3,5.3,2.4,8.1,2.6c2.6,0.2,5.7,1.4,6.7-3.2c0.7-2.9,4.1-2,4.7,0.3
			c0.8,3.5,3,2.7,5.1,2.8c2.3,0.1,4.7,0.1,7,0C409.3,183.5,410.3,184.3,410.5,186z"/>
		<path class="st76" d="M540.6,231.6c6,0.8,5.4-3.3,5.5-7.1c0-11.3,0.1-11.3-11.4-11.3c-2.3,0-4.7,0-7,0c-2.2,0.1-4.2-0.5-4.4-2.9
			c-0.2-2.8,2.1-2.8,4.2-2.8c8.8,0.1,17.6,0.2,26.4,0.3c1.9,0,3.9,0,4.1,2.5c0.2,2.3-1.4,3.3-3.5,3.1c-2.7-0.3-2.4,1.4-2.5,3.1
			c-0.2,7.1-0.6,14.1-0.8,21.2c-0.1,3.5-1.7,3.8-4.4,2.2c-3.3-1.9-6.8-3.6-6-8.4L540.6,231.6z"/>
		<path class="st113" d="M649.9,156.9c0.4,0.9,1.3,2.2,1,2.5c-5.1,5.5-3.6,13.2-6.9,19.3c-0.8,0.5-0.4,2.2-1.6,2
			c-1.7-0.2-0.4-2.3-1.6-3c-3.1-5.9-3.2-13.1-7.7-18.4c-0.7-0.8,0.1-1.9,0.8-2.7c3.3-3.5,5.1-7.6,5.3-12.4c0-1.1,0-3,1.7-3.1
			c2-0.1,2,1.8,2.4,3.2C644.5,149,645.1,154,649.9,156.9L649.9,156.9z"/>
		<path class="st39" d="M540.7,231.4c-4.3,0.2-8.5,0.4-12.8,0.5c-2.6,0.1-3.9-1-4-3.8c-0.6-16.4-3.5-13.1,12.7-13.6
			c3.8-0.1,5.2,1.3,4.7,4.9c-0.6,4,1.2,8.2-0.8,12.1C540.6,231.6,540.7,231.4,540.7,231.4z"/>
		<path class="st114" d="M609.1,191.7c0-0.8,0-1.6,0.1-2.5c0.5-0.5,0.3-1.2,0.9-1.6c3-1.2,6.5-1.4,7.3-5.9c0.4-2.3,3-0.7,4.7-0.3
			c3.4,0.8,1.4,2.9,1.3,5.1c1.5,0,2.9,0.1,4.3,0c2-0.2,2.5,0.6,2.5,2.5c0,2-0.7,2.9-2.6,2.5c-6.7-1.5-8,2.9-8.7,7.9
			c-1.8,1.1-3.5,0.4-5.2-0.2C611.1,197.4,612.2,193.3,609.1,191.7z"/>
		<path class="st115" d="M340.9,168c0.2-2.4,2.7-4.6,5.6-4.8c3.1-0.3,5.8,1.5,5.7,5.4c-0.1,3.6-1.2,6.7-5.4,7.2
			C343.7,176.1,341,172.8,340.9,168z"/>
		<path class="st116" d="M591.2,208.4c-0.4-2.9-0.8-5.8-1-8.7c-0.5-4.9,2.5-7.9,7.1-6.2c3.2,1.2,2.9,4.8,2.5,7.8
			c-7.4,0.8-7.6,1-7.8,7.1l-0.4,0L591.2,208.4z"/>
		<path class="st117" d="M614,198.5c1.5,0.7,3.1,1.4,4.8,1c0.4,0.3,0.8,0.6,1.2,0.9c-4.4,0-8.7-0.1-13.1-0.1
			C608.5,196.6,611.7,199.2,614,198.5z"/>
		<path class="st118" d="M640.9,177.7c1.1,0.1,1.2,3.5,3.1,1c0,2.1-0.1,4.1-1.3,6.5C640.9,182.5,641.8,179.9,640.9,177.7z"/>
		<path class="st119" d="M610,187.6c-0.1,0.7-0.1,1.4-0.9,1.6c-0.1-3.8-3.8-1-5-2.8C606.1,186.6,608.4,185.5,610,187.6z"/>
		<path class="st120" d="M631,150.9c0.6-0.3,1.3-0.5,1.9-0.8c1.2,0.4,1.7,1.6,1,2.2C632.4,153.4,631.9,151.6,631,150.9z"/>
		<path class="st76" d="M213.6,178.2c0,7.5-2.3,11.9-5.9,12.1c-6.1,0.3-6.3-4.9-7.6-8.8c-1.1-3.3-1.4-6.8-0.2-10.2
			c1.1-3.2,3.5-4.6,6.8-4.7c3.4-0.1,4.8,2,5.5,4.7C212.9,174,213.4,176.8,213.6,178.2z"/>
		<path class="st121" d="M171.6,215.2c0.1-9.3,1.6-10.9,10-11.4c3.3-0.2,6.6-0.8,9.6-2.4c0.8-0.4,1.7-1.4,2.6-0.2
			c0.6,0.8,0.2,1.6-0.5,2.2c-3.1,2.7-3.7,6.5-4.8,10.1c-0.5,1.6-1.1,3.1-2,4.5c-2.1,3.5-4.5,7-9.3,5.9
			C172.2,222.8,171.7,218.5,171.6,215.2z"/>
		<path class="st39" d="M147.8,183.3c0-3.9,0.7-6.7,4.5-7.4c3.5-0.6,6.1,0.5,7.7,3.9c1.8,4.1,2.1,8.3,0.7,12.6
			c-0.7,2.2-2.3,3.7-4.7,3.9c-2.2,0.2-3.9-1-4.9-2.9C149.3,190.1,148.1,186.5,147.8,183.3z"/>
		<path class="st122" d="M144,204.6c-2.4,4.6-7.5,7-11.8,5.3c-2.5-1-5.1-2.4-5.1-5.4c0-3.3,2.7-4.9,5.4-5.6c3.9-1,7.9-0.6,11.7,0.8
			c0,0.7-0.4,1.2-0.9,1.6c-0.7,0.5-1.5,0.8-2.4,0.6c-1-0.3-1.8-0.9-2.9-0.9c-2.3,1.2-6.8-0.3-6,4.7c3.1,2.6,5.7,1,8.1-1
			c0.8-0.6,1.6-1,2.6-0.9C143.4,203.9,143.8,204.2,144,204.6z"/>
		<path class="st123" d="M227,198.5c-2.6,0-4.6-0.9-4.7-3.2c-0.2-3.3,3-3.3,5-3.3c2,0,5.5-0.5,5.4,2.7
			C232.7,197.8,229.1,197.8,227,198.5z"/>
		<path class="st124" d="M259.7,236.2c-0.7-1.5-3.6-0.4-3.5-2.8c0-1.1,1.1-1.6,2.1-1.9c2-0.6,3.6,0,4.9,1.5c1.5,1.7,1.8,3.8,1.7,6
			c-0.9,1-1.9,1.9-2.8,2.9C258.2,241.3,261.4,237.8,259.7,236.2z"/>
		<path class="st125" d="M144,204.6c-0.2-0.2-0.5-0.3-0.8-0.4c-1.4-1.2-1.2-2.4-0.1-3.7c0.4-0.3,0.8-0.6,1.1-1c1.9,0.1,3,1.1,2.9,3
			C147.1,204.8,145.4,204.4,144,204.6z"/>
		<path class="st126" d="M127,265.9c-0.4-0.8-1.2-0.9-2-1c1.4-1.4,3.2-2.1,5.7-2.9C129.7,264.1,128.6,265.3,127,265.9z"/>
		<path class="st127" d="M199.5,127.1c-4.2,1.2-6.6-0.1-7.3-3.6c-0.5-2.4,1-4,3.5-4.5c2-0.4,8.3,4.5,7.9,6.4
			C203.1,128.3,200.7,127.3,199.5,127.1z"/>
		<path class="st128" d="M97.3,116.4c13.9,0.8,19.1,3.1,22.7,9.2C111.8,122.3,104.6,119.3,97.3,116.4z"/>
		<path class="st129" d="M655.7,142.1c-1.3-1.9-1.1-3.2,0.1-4.3c0.5-0.5,0.9-0.1,1.2,0.3C658.1,139.6,657.1,140.7,655.7,142.1z"/>
		<path class="st130" d="M761.7,158.6c0.2,4.1,1,8.2-1.2,12.1c-1.7,2.9-4,3.1-5.6,0.3c-3.7-6.7-4-13.8-2.2-21
			c0.7-2.5,2.2-5.2,5.5-4.5c3,0.6,3.4,3.3,3.5,5.8C761.8,153.7,761.7,156.1,761.7,158.6z"/>
		<path class="st38" d="M820.2,162.4c-0.2,3.4,0.9,7-2,9.8c-1.2,1.2-2.5,2.3-4.3,1.9c-1.9-0.4-2.7-1.9-2.9-3.6
			c-0.7-5.9-1.6-11.8-1.2-17.7c0.2-2.6,0.8-5.6,4.1-5.9c3.2-0.3,3.9,2.6,4.8,4.8C820.2,155.1,820.3,158.7,820.2,162.4z"/>
		<path class="st131" d="M740.2,171.8c3.3-0.2,5.3-0.2,7.1,1c2.7,1.8,2.4,5.3-0.5,6.7c-2.6,1.2-5.5,1.4-8.3,0.9
			c-2.4-0.4-4.5-1.3-4.5-4.3c0-3.1,2.2-3.8,4.6-4.3C739.5,171.7,740.5,171.8,740.2,171.8z"/>
		<path class="st132" d="M831.3,177.7c-1.2,0-2.3,0-3.5,0c-2,0-3.6-0.7-3.8-3c-0.2-2.5,0.8-4.4,3.3-4.8c2.4-0.4,5-0.3,7.5-0.2
			c2.6,0.1,4.8,1.6,4.8,4.1c0,3-2.3,4.1-5.2,3.9C833.3,177.7,832.3,177.7,831.3,177.7C831.3,177.7,831.3,177.7,831.3,177.7z"/>
		<path class="st133" d="M859,115.2c4-0.7,8-1.6,11.3-4c1.4-1,2.9-1.3,4.6-1c0.7,1,3.2,2.2,0.8,3.3c-4.8,2.1-9.8,4-15.3,3.5
			C859.4,116.9,859.2,116.1,859,115.2z"/>
		<path class="st77" d="M788.3,217.8c-1.5-0.2-4-0.5-6.4-1c-1.4-0.3-2.4-1.2-2.2-2.8c0.2-1.4,1.3-1.9,2.5-1.9
			c8.6,0.5,16.7-1.5,24.7-4.4c1.1-0.4,2.9-0.7,3.6,0.7c1,1.9-0.7,3.2-1.9,4C802.8,216.3,796.1,217.4,788.3,217.8z"/>
		<path class="st134" d="M779.8,304.6c-0.5,0.4-0.8,0.8-1.1,0.9c-0.4,0-1.1-0.2-1.2-0.4c-0.3-0.7,0.3-1.2,1-1.1
			C778.9,303.9,779.2,304.3,779.8,304.6z"/>
		<path class="st135" d="M332.1,267c-1-2.4-1.7-5-3-7.3c-1.1-2-1.1-3.4,0.5-5.2c1.3-1.6,2-3.7,2.9-5.6c7.8,5,3.9,11.1,1.5,17.1
			C333.5,266.5,333.2,267.6,332.1,267z"/>
		<path class="st82" d="M333.9,269.8c0,0.6,0.1,1.3,0.1,1.9c0,0.5-0.2,0.9-0.3,1.5c-1.7-1-1.8-2.6-1.7-4.2
			C333,268.3,333.4,269.2,333.9,269.8z"/>
		<path class="st136" d="M333.9,269.8c-0.6-0.3-1.2-0.6-1.9-0.8c0-0.7,0-1.3,0-2c0.6-0.3,1.3-0.6,1.9-1
			C334,267.2,333.9,268.5,333.9,269.8z"/>
		<path class="st137" d="M546,275.2c-1.1-2.1-2.5-3.6-1.1-5.6c0.1-0.2,1-0.2,1.2,0.1C547.9,271.3,547.4,272.9,546,275.2z"/>
		<path class="st138" d="M562.4,290.7c-1.9-2-2.2-3.5-0.9-5.2c0.5-0.6,1.1-0.7,1.6-0.1C564.9,287.2,562.9,288.5,562.4,290.7z"/>
		<path class="st139" d="M676.9,306.8c-1.2-5.1-0.7-9.8,3.1-13.8c4.3-4.6,9.3-4.2,12.7,1c4.3,6.7-0.9,17.2-8.8,17.8
			C680.7,311.3,678.4,309.5,676.9,306.8z"/>
		<path class="st77" d="M646.1,310.5c-6.7-4.6-8-10.1-3.8-16.2c2.2-3.2,5.2-5.1,9.3-4.4c3.9,0.7,5.2,3.7,5.9,7.1
			c0.3,1.6,0.4,3.2,0.7,4.9C655,310.5,653.4,311.7,646.1,310.5z"/>
		<path class="st140" d="M659.9,321.2c-5.9,0.6-9.5-1.7-9-5.7c0.1-0.7-0.2-1.7,1-1.9c0.8-0.1,1.2,0.4,1.3,1.1c1,5.6,4.6,3.9,7.3,2.1
			c2.3-1.6,3.3-1.7,5.1,0.6c2.7,3.4,5.6,1.4,8.2-0.6c0.9-0.7,1.6-2.6,3.1-1c1.4,1.5,0.1,2.8-1.1,3.7c-3.2,2.5-7.1,2.7-10.9,2.1
			C663.2,321.2,661.6,320.4,659.9,321.2z"/>
		<path class="st141" d="M681.7,323.5c-0.1,0.8-0.7,1-1.4,1c-0.8,0-1.1-0.6-1.1-1.3c0.1-0.7,0.7-1.1,1.4-1
			C681.4,322.2,681.7,322.8,681.7,323.5z"/>
		<path class="st142" d="M654.8,271.9c0.4,0.4,0.8,0.7,1.2,1.1c-0.4,4.5-6.7,9.8-11.2,9.4c-0.3,0-0.6-1-0.9-1.6
			c2.4-2,4.6-3.8,5.2-7.4C649.6,270,653,272.8,654.8,271.9z"/>
		<path class="st103" d="M700.9,282c0.9-0.5,0.3-2.7,2.3-2C702.8,281,703.6,283.5,700.9,282z"/>
		<path class="st106" d="M657.1,270.9c0.1-1.6-0.6-3.4,0.9-4.8C657.8,267.7,658.6,269.6,657.1,270.9z"/>
		<path class="st143" d="M705.7,263.3c0.1,2.9,0.2,5.7,0.2,8.6c-0.6,0-1.3,0-1.9,0c-4.4-0.1-4.6-2-2.2-5.1
			C702.9,265.5,703.8,263.8,705.7,263.3z"/>
		<path class="st144" d="M701.3,276.9c-1.1,1.8-2.3,1.7-3.4,0c0.5-1,0.1-2.6,1.6-2.8C701.5,273.8,699.7,276.5,701.3,276.9z"/>
		<path class="st145" d="M653.1,253.9c0,1-0.6,1.5-1.5,1.5c-0.8,0-1.6-0.4-1.6-1.4c0-1,0.7-1.5,1.5-1.6
			C652.3,252.4,653,253,653.1,253.9z"/>
		<path class="st146" d="M384.5,205.4c-3.8,0-7.6,0.1-11.4,0c-1.1,0-2.9,0.7-3-1.4c-0.1-2.2,1.5-1.7,2.8-1.7
			c7.6,0,15.2,0.1,22.8,0.3c1.1,0,2.5-0.3,2.4,1.6c-0.1,1.8-1.6,1.4-2.6,1.4C391.7,205.5,388.1,205.4,384.5,205.4z"/>
		<path class="st146" d="M397.2,213c-3,0.2-5.8,0.5-8.7,0.6c-5.1,0.1-10.3,0.1-15.4,0c-0.8,0-1.8,0-1.9-1c-0.2-1.1,0.6-1.4,1.5-1.4
			c7.9,0.1,15.9-0.5,23.8,0.4C396.6,211.6,396.7,212.1,397.2,213z"/>
		<path class="st23" d="M466,215.3c10.1,0,9.7,0,10.2,10c0.2,5.1-1.4,6.9-6.3,6.2c-0.5-0.1-1,0-1.5,0c-12.5,0.1-12.3,0.1-12.6-12.3
			c-0.1-3.5,1.2-4.2,4.2-4C462,215.4,464,215.3,466,215.3z"/>
		<path class="st147" d="M607,228c-0.6,1.5,1.3,4.3-1.5,5.3c-1.6,0.6-3.8,1.1-5.3,0.5c-1.7-0.7-1-2.9-0.6-4.4
			c0.6-2.3-1.2-5.2,1.5-6.8C604.8,220.5,607,222.4,607,228z"/>
		<path class="st23" d="M613.7,227.4c0.7-1.9-0.9-4.4,1.1-5.9c2.4-1.7,6,0.3,6.2,3.2c0.1,1.5-0.1,3,0.1,4.4c0.3,3-0.6,4.2-4,4.3
			c-3.8,0-3.4-2.1-3.3-4.4C613.8,228.5,613.7,228,613.7,227.4z"/>
		<path class="st148" d="M606.6,210.7c1.3,4.8-0.2,6.1-3.9,6.1c-2.3,0-3.2-0.6-2.6-2.6c0.8-2.9-1.6-7.6,4.2-7.7
			C608.7,206.3,606.1,210,606.6,210.7z"/>
		<path class="st149" d="M620.1,212.8c0.6,2.8-0.8,3.5-3.3,3.3c-6.2-0.6-1.7-5.6-3.3-8.1c-0.7-1.2-0.1-2.7,1.9-2.5
			C619.8,206,620.1,209.3,620.1,212.8z"/>
		<path class="st150" d="M614,198.5c-2,2.1-5.1-0.1-7.1,1.8c-0.6,0.1-1.3,0.3-1.9,0.4c-0.3-0.1-0.6-0.1-1-0.2c2.9-2.2,0.1-7.7,5-8.7
			c2.5-0.1,4.7,0.1,4,3.6C612.8,196.5,612.8,197.7,614,198.5z"/>
		<path class="st151" d="M577.9,211.2c-0.1-5.8,0.1-11.5,1-17.2c0.2-1-0.3-2.5,1.5-2.5c1.7,0,2.5,1,2.5,2.5c0.1,9.5,1.6,19,0.8,28.6
			c-0.2,2.8-2.3,1.8-3.6,2.2c-2.1,0.7-2.1-0.8-2.2-2.1C577.9,218.8,577.9,215,577.9,211.2z"/>
		<path class="st152" d="M641.1,167.7c-0.4-1.4-0.6-2.9-1.3-4.2c-1.9-3.5-1.7-6.5,1.7-9c6.2,3.7,1.8,8.7,1.4,13.2
			C642.3,168.3,641.7,168.3,641.1,167.7z"/>
		<path class="st153" d="M641.1,167.7c0.6,0,1.2,0,1.7,0c0.2,0.9,0.4,2.3-0.4,2.4C641.1,170.2,641,168.8,641.1,167.7z"/>
		<path class="st154" d="M535.7,222.9c0.3,2.3-1,2.7-3,2.8c-2,0-3.1-0.4-3.1-2.7c-0.1-2.4,1.1-2.7,3-2.6
			C534.4,220.3,536,220.4,535.7,222.9z"/>
		<path class="st155" d="M348.8,169.5c-0.3,1.1-0.7,2.3-2.1,2.2c-1.7-0.2-1.7-1.7-1.7-2.9c0-0.9,0-2.1,1.5-1.8
			C347.8,167.2,348.8,167.9,348.8,169.5z"/>
		<path class="st156" d="M177.1,213.8c0.1-0.9,0.1-1.9,0.3-2.8c0.4-1.5,0.1-3.5,2.4-3.8c1.2-0.2,2.3-0.2,3.1,0.8
			c1.2,1.5,1.3,2.9,0.4,4.5c-0.5,0.9-0.8,1.8-1.3,2.6c-0.9,1.3-1.4,3.6-3.4,3C176.9,217.7,177.2,215.5,177.1,213.8z"/>
		<path class="st157" d="M143.2,200.6c0,1.2,0,2.4,0.1,3.7c-0.8,0.4-1.5,0.8-2.3,1.2c-3.1,2.1-6.4,2.5-10,1
			c-2.3-2.8-0.6-4.4,1.9-5.4c1.9-0.7,4-1,6-1.5c0.4,1,0.7,2.1,2.2,1.8C141.8,201.1,142.5,200.9,143.2,200.6z"/>
		<path class="st158" d="M131,206.5c3.4,0,6.7,0.2,10-1C137.9,208.5,134.7,209.7,131,206.5z"/>
		<path class="st159" d="M141.1,201.4c-0.6,0.9-0.8,2.7-2.2,1.9c-1.8-1-0.8-2.5,0.1-3.7C139.7,200.2,140.4,200.8,141.1,201.4z"/>
		<path class="st160" d="M689,302.8c-0.7,1-1.4,1.9-2,2.9c-4.1,0.6-6.4-1.6-5.9-5.7c0.2-1.7,1-3.1,2-4.4c1.7-1,3.3-2.2,4.9,0.2
			c0.4,0.3,0.7,0.6,1.1,0.8C689.2,298.7,688.5,300.7,689,302.8z"/>
		<path class="st161" d="M683.9,295.5c-3.3,6-2.5,8.8,3.1,10.2c-2.8,2.8-5,2.7-6-0.6c-1.1-3.7-1.6-7.5,2.1-10.3
			C684,294.3,684.1,294.8,683.9,295.5z"/>
		<path class="st162" d="M689,302.8c-1.7-2.1-1.4-4.1,0-6.2C690.9,298.7,689.9,300.7,689,302.8z"/>
		<path class="st163" d="M683.9,295.5c-0.3-0.2-0.6-0.5-0.8-0.7c2-1.6,3.9-2.6,4.9,0.9C686.7,295,685.3,294.7,683.9,295.5z"/>
		<path class="st164" d="M654,301.7c0,2-1.7,2.3-3,3c-1.6,1.1-3.1,0.8-4.3-0.6c-0.7-1.4-1.4-2.8-1.5-4.5c0.4-1.8,0.4-3.6,1.9-5
			c0.3-0.5,0.6-1.1,0.9-1.6c1.6-1,2.8,0.1,4.1,0.7c1.4,0.1,2,0.8,2,2.1C653.2,297.8,653.2,299.7,654,301.7z"/>
		<path class="st165" d="M647,294.6c-0.4,1.7-0.8,3.4-1.2,5.2c-0.6,0.6,0,1.8-1,2.2C644.2,299.1,643.7,296.3,647,294.6z"/>
		<path class="st166" d="M647.2,303.6c1.3,0.4,2.6,0.7,3.8,1.1c-1.6,3.2-3.3,2.2-5.1,0.2C645.5,303.7,646.1,303.4,647.2,303.6z"/>
		<path class="st167" d="M647.2,303.6c-0.4,0.4-0.9,0.8-1.3,1.3c-1-0.7-1.1-1.8-1-2.9c0.3-0.7,0.7-1.5,1-2.2
			C646.3,301.1,646.7,302.3,647.2,303.6z"/>
		<path class="st168" d="M654,301.7c-1.6-1.9-1.4-3.9,0-5.8C654,297.8,654,299.7,654,301.7z"/>
		<path class="st169" d="M652,293.8c-1.4,0.2-2.8-0.1-4.1-0.7C649.7,290.9,651,291.7,652,293.8z"/>
	</g>
</g>
</svg>
